%TF.GenerationSoftware,KiCad,Pcbnew,8.0.6-8.0.6-0~ubuntu24.04.1*%
%TF.CreationDate,2024-11-11T20:35:34-05:00*%
%TF.ProjectId,Hexapod_bot,48657861-706f-4645-9f62-6f742e6b6963,rev?*%
%TF.SameCoordinates,Original*%
%TF.FileFunction,Soldermask,Bot*%
%TF.FilePolarity,Negative*%
%FSLAX46Y46*%
G04 Gerber Fmt 4.6, Leading zero omitted, Abs format (unit mm)*
G04 Created by KiCad (PCBNEW 8.0.6-8.0.6-0~ubuntu24.04.1) date 2024-11-11 20:35:34*
%MOMM*%
%LPD*%
G01*
G04 APERTURE LIST*
G04 Aperture macros list*
%AMRoundRect*
0 Rectangle with rounded corners*
0 $1 Rounding radius*
0 $2 $3 $4 $5 $6 $7 $8 $9 X,Y pos of 4 corners*
0 Add a 4 corners polygon primitive as box body*
4,1,4,$2,$3,$4,$5,$6,$7,$8,$9,$2,$3,0*
0 Add four circle primitives for the rounded corners*
1,1,$1+$1,$2,$3*
1,1,$1+$1,$4,$5*
1,1,$1+$1,$6,$7*
1,1,$1+$1,$8,$9*
0 Add four rect primitives between the rounded corners*
20,1,$1+$1,$2,$3,$4,$5,0*
20,1,$1+$1,$4,$5,$6,$7,0*
20,1,$1+$1,$6,$7,$8,$9,0*
20,1,$1+$1,$8,$9,$2,$3,0*%
G04 Aperture macros list end*
%ADD10RoundRect,0.237500X0.237500X-0.250000X0.237500X0.250000X-0.237500X0.250000X-0.237500X-0.250000X0*%
%ADD11R,1.700000X1.700000*%
%ADD12O,1.700000X1.700000*%
%ADD13RoundRect,0.237500X-0.237500X0.250000X-0.237500X-0.250000X0.237500X-0.250000X0.237500X0.250000X0*%
%ADD14RoundRect,0.237500X0.250000X0.237500X-0.250000X0.237500X-0.250000X-0.237500X0.250000X-0.237500X0*%
%ADD15C,2.154000*%
%ADD16C,2.900000*%
%ADD17C,5.000000*%
G04 APERTURE END LIST*
D10*
%TO.C,R34*%
X49750000Y-9000000D03*
X49750000Y-7175000D03*
%TD*%
%TO.C,R31*%
X52500000Y-9000000D03*
X52500000Y-7175000D03*
%TD*%
D11*
%TO.C,J21*%
X58000000Y-56000000D03*
D12*
X58000000Y-58540000D03*
X58000000Y-61080000D03*
%TD*%
D10*
%TO.C,R30*%
X47000000Y-9000000D03*
X47000000Y-7175000D03*
%TD*%
D13*
%TO.C,R38*%
X36000000Y-40912500D03*
X36000000Y-39087500D03*
%TD*%
D11*
%TO.C,J17*%
X29000000Y-56000000D03*
D12*
X29000000Y-58540000D03*
X29000000Y-61080000D03*
%TD*%
D11*
%TO.C,J13*%
X0Y-56000000D03*
D12*
X0Y-58540000D03*
X0Y-61080000D03*
%TD*%
D13*
%TO.C,R40*%
X24000000Y-40912500D03*
X24000000Y-39087500D03*
%TD*%
%TO.C,R39*%
X30000000Y-40912500D03*
X30000000Y-39087500D03*
%TD*%
D11*
%TO.C,J7*%
X25000000Y7000000D03*
D12*
X25000000Y9540000D03*
X25000000Y12080000D03*
%TD*%
D14*
%TO.C,R9*%
X49087500Y-24500000D03*
X50912500Y-24500000D03*
%TD*%
D11*
%TO.C,J16*%
X25000000Y-56000000D03*
D12*
X25000000Y-58540000D03*
X25000000Y-61080000D03*
%TD*%
D15*
%TO.C,J3*%
X-1000000Y-43000000D03*
X-1000000Y-39500000D03*
%TD*%
D11*
%TO.C,J24*%
X14225000Y-61225000D03*
D12*
X16765000Y-61225000D03*
X19305000Y-61225000D03*
%TD*%
D10*
%TO.C,R32*%
X38500000Y-9075007D03*
X38500000Y-7250007D03*
%TD*%
D14*
%TO.C,R4*%
X51150000Y-32750000D03*
X49325000Y-32750000D03*
%TD*%
D11*
%TO.C,J11*%
X54000000Y7000000D03*
D12*
X54000000Y9540000D03*
X54000000Y12080000D03*
%TD*%
D14*
%TO.C,R8*%
X51075000Y-30000000D03*
X49250000Y-30000000D03*
%TD*%
D11*
%TO.C,J9*%
X33000000Y7000000D03*
D12*
X33000000Y9540000D03*
X33000000Y12080000D03*
%TD*%
D11*
%TO.C,J8*%
X29000000Y7000000D03*
D12*
X29000000Y9540000D03*
X29000000Y12080000D03*
%TD*%
D16*
%TO.C,H4*%
X58000000Y-49000000D03*
D17*
X58000000Y-49000000D03*
%TD*%
D16*
%TO.C,H1*%
X0Y0D03*
D17*
X0Y0D03*
%TD*%
D11*
%TO.C,J12*%
X58000000Y7000000D03*
D12*
X58000000Y9540000D03*
X58000000Y12080000D03*
%TD*%
D11*
%TO.C,J22*%
X14225000Y12275000D03*
D12*
X16765000Y12275000D03*
X19305000Y12275000D03*
%TD*%
D13*
%TO.C,R37*%
X21000000Y-39087500D03*
X21000000Y-40912500D03*
%TD*%
D10*
%TO.C,R29*%
X41500000Y-7175000D03*
X41500000Y-9000000D03*
%TD*%
D16*
%TO.C,H2*%
X58000000Y0D03*
D17*
X58000000Y0D03*
%TD*%
D14*
%TO.C,R7*%
X51175000Y-35750000D03*
X49350000Y-35750000D03*
%TD*%
D11*
%TO.C,J4*%
X0Y7000000D03*
D12*
X0Y9540000D03*
X0Y12080000D03*
%TD*%
D11*
%TO.C,J20*%
X54000000Y-56000000D03*
D12*
X54000000Y-58540000D03*
X54000000Y-61080000D03*
%TD*%
D11*
%TO.C,J18*%
X33000000Y-56000000D03*
D12*
X33000000Y-58540000D03*
X33000000Y-61080000D03*
%TD*%
D11*
%TO.C,J25*%
X39225000Y-61225000D03*
D12*
X41765000Y-61225000D03*
X44305000Y-61225000D03*
%TD*%
D11*
%TO.C,J5*%
X4000000Y7000000D03*
D12*
X4000000Y9540000D03*
X4000000Y12080000D03*
%TD*%
D11*
%TO.C,J15*%
X8000000Y-56000000D03*
D12*
X8000000Y-58540000D03*
X8000000Y-61080000D03*
%TD*%
D11*
%TO.C,J6*%
X8000000Y7000000D03*
D12*
X8000000Y9540000D03*
X8000000Y12080000D03*
%TD*%
D10*
%TO.C,R33*%
X44250000Y-7175000D03*
X44250000Y-9000000D03*
%TD*%
D16*
%TO.C,H3*%
X0Y-49000000D03*
D17*
X0Y-49000000D03*
%TD*%
D13*
%TO.C,R36*%
X27000000Y-39087500D03*
X27000000Y-40912500D03*
%TD*%
D12*
%TO.C,J2*%
X54500000Y-30875000D03*
X57040000Y-30875000D03*
X54500000Y-28335000D03*
X57040000Y-28335000D03*
X54500000Y-25795000D03*
X57040000Y-25795000D03*
X54500000Y-23255000D03*
X57040000Y-23255000D03*
X54500000Y-20715000D03*
X57040000Y-20715000D03*
X54500000Y-18175000D03*
D11*
X57040000Y-18175000D03*
%TD*%
D14*
%TO.C,R5*%
X51075000Y-27250000D03*
X49250000Y-27250000D03*
%TD*%
D11*
%TO.C,J23*%
X39500000Y12250000D03*
D12*
X42040000Y12250000D03*
X44580000Y12250000D03*
%TD*%
D11*
%TO.C,J10*%
X50000000Y7000000D03*
D12*
X50000000Y9540000D03*
X50000000Y12080000D03*
%TD*%
D11*
%TO.C,J1*%
X4870000Y-1290000D03*
D12*
X4870000Y1250000D03*
X7410000Y-1290000D03*
X7410000Y1250000D03*
X9950000Y-1290000D03*
X9950000Y1250000D03*
X12490000Y-1290000D03*
X12490000Y1250000D03*
X15030000Y-1290000D03*
X15030000Y1250000D03*
X17570000Y-1290000D03*
X17570000Y1250000D03*
X20110000Y-1290000D03*
X20110000Y1250000D03*
X22650000Y-1290000D03*
X22650000Y1250000D03*
X25190000Y-1290000D03*
X25190000Y1250000D03*
X27730000Y-1290000D03*
X27730000Y1250000D03*
X30270000Y-1290000D03*
X30270000Y1250000D03*
X32810000Y-1290000D03*
X32810000Y1250000D03*
X35350000Y-1290000D03*
X35350000Y1250000D03*
X37890000Y-1290000D03*
X37890000Y1250000D03*
X40430000Y-1290000D03*
X40430000Y1250000D03*
X42970000Y-1290000D03*
X42970000Y1250000D03*
X45510000Y-1290000D03*
X45510000Y1250000D03*
X48050000Y-1290000D03*
X48050000Y1250000D03*
X50590000Y-1290000D03*
X50590000Y1250000D03*
X53130000Y-1290000D03*
X53130000Y1250000D03*
%TD*%
D14*
%TO.C,R6*%
X49250000Y-21500000D03*
X51075000Y-21500000D03*
%TD*%
D11*
%TO.C,J19*%
X50000000Y-56000000D03*
D12*
X50000000Y-58540000D03*
X50000000Y-61080000D03*
%TD*%
D13*
%TO.C,R35*%
X33000000Y-40912500D03*
X33000000Y-39087500D03*
%TD*%
D11*
%TO.C,J14*%
X4000000Y-56000000D03*
D12*
X4000000Y-58540000D03*
X4000000Y-61080000D03*
%TD*%
D10*
%TO.C,JP2*%
X47600000Y-15575000D03*
X47600000Y-13750000D03*
%TD*%
%TO.C,JP3*%
X44600000Y-15662500D03*
X44600000Y-13837500D03*
%TD*%
D13*
%TO.C,JP9*%
X24650000Y-32250000D03*
X24650000Y-34075000D03*
%TD*%
%TO.C,JP11*%
X30730000Y-32225000D03*
X30730000Y-34050000D03*
%TD*%
D10*
%TO.C,JP4*%
X41600000Y-15675000D03*
X41600000Y-13850000D03*
%TD*%
D13*
%TO.C,JP12*%
X33630000Y-32237500D03*
X33630000Y-34062500D03*
%TD*%
D10*
%TO.C,JP1*%
X50500000Y-15412500D03*
X50500000Y-13587500D03*
%TD*%
D13*
%TO.C,JP7*%
X18750000Y-32250000D03*
X18750000Y-34075000D03*
%TD*%
%TO.C,JP10*%
X27830000Y-32250000D03*
X27830000Y-34075000D03*
%TD*%
%TO.C,JP8*%
X21650000Y-32250000D03*
X21650000Y-34075000D03*
%TD*%
D10*
%TO.C,JP6*%
X35600000Y-15662500D03*
X35600000Y-13837500D03*
%TD*%
%TO.C,JP5*%
X38600000Y-15675000D03*
X38600000Y-13850000D03*
%TD*%
M02*
