%TF.GenerationSoftware,KiCad,Pcbnew,8.0.6-8.0.6-0~ubuntu24.04.1*%
%TF.CreationDate,2024-11-11T20:35:34-05:00*%
%TF.ProjectId,Hexapod_bot,48657861-706f-4645-9f62-6f742e6b6963,rev?*%
%TF.SameCoordinates,Original*%
%TF.FileFunction,Soldermask,Top*%
%TF.FilePolarity,Negative*%
%FSLAX46Y46*%
G04 Gerber Fmt 4.6, Leading zero omitted, Abs format (unit mm)*
G04 Created by KiCad (PCBNEW 8.0.6-8.0.6-0~ubuntu24.04.1) date 2024-11-11 20:35:34*
%MOMM*%
%LPD*%
G01*
G04 APERTURE LIST*
G04 Aperture macros list*
%AMRoundRect*
0 Rectangle with rounded corners*
0 $1 Rounding radius*
0 $2 $3 $4 $5 $6 $7 $8 $9 X,Y pos of 4 corners*
0 Add a 4 corners polygon primitive as box body*
4,1,4,$2,$3,$4,$5,$6,$7,$8,$9,$2,$3,0*
0 Add four circle primitives for the rounded corners*
1,1,$1+$1,$2,$3*
1,1,$1+$1,$4,$5*
1,1,$1+$1,$6,$7*
1,1,$1+$1,$8,$9*
0 Add four rect primitives between the rounded corners*
20,1,$1+$1,$2,$3,$4,$5,0*
20,1,$1+$1,$4,$5,$6,$7,0*
20,1,$1+$1,$6,$7,$8,$9,0*
20,1,$1+$1,$8,$9,$2,$3,0*%
G04 Aperture macros list end*
%ADD10RoundRect,0.237500X-0.237500X0.300000X-0.237500X-0.300000X0.237500X-0.300000X0.237500X0.300000X0*%
%ADD11R,1.600200X2.692400*%
%ADD12RoundRect,0.250000X-0.337500X-0.475000X0.337500X-0.475000X0.337500X0.475000X-0.337500X0.475000X0*%
%ADD13R,1.700000X1.700000*%
%ADD14O,1.700000X1.700000*%
%ADD15RoundRect,0.237500X-0.237500X0.250000X-0.237500X-0.250000X0.237500X-0.250000X0.237500X0.250000X0*%
%ADD16R,1.270000X0.558800*%
%ADD17RoundRect,0.250000X0.475000X-0.337500X0.475000X0.337500X-0.475000X0.337500X-0.475000X-0.337500X0*%
%ADD18RoundRect,0.237500X0.250000X0.237500X-0.250000X0.237500X-0.250000X-0.237500X0.250000X-0.237500X0*%
%ADD19RoundRect,0.237500X0.237500X-0.250000X0.237500X0.250000X-0.237500X0.250000X-0.237500X-0.250000X0*%
%ADD20R,1.625600X1.727200*%
%ADD21R,1.295400X4.597400*%
%ADD22RoundRect,0.237500X-0.250000X-0.237500X0.250000X-0.237500X0.250000X0.237500X-0.250000X0.237500X0*%
%ADD23RoundRect,0.150000X-0.825000X-0.150000X0.825000X-0.150000X0.825000X0.150000X-0.825000X0.150000X0*%
%ADD24C,2.154000*%
%ADD25RoundRect,0.237500X0.300000X0.237500X-0.300000X0.237500X-0.300000X-0.237500X0.300000X-0.237500X0*%
%ADD26R,0.670001X0.299999*%
%ADD27RoundRect,0.237500X-0.300000X-0.237500X0.300000X-0.237500X0.300000X0.237500X-0.300000X0.237500X0*%
%ADD28C,2.900000*%
%ADD29C,5.000000*%
%ADD30RoundRect,0.237500X0.237500X-0.300000X0.237500X0.300000X-0.237500X0.300000X-0.237500X-0.300000X0*%
%ADD31R,0.576580X0.351536*%
%ADD32R,0.351536X0.576580*%
%ADD33R,0.558800X1.270000*%
%ADD34R,0.609600X0.304800*%
%ADD35R,1.778000X2.438400*%
%ADD36R,2.209800X8.001000*%
%ADD37R,1.371600X0.457200*%
%ADD38R,0.355600X1.473200*%
%ADD39RoundRect,0.237500X-0.287500X-0.237500X0.287500X-0.237500X0.287500X0.237500X-0.287500X0.237500X0*%
%ADD40RoundRect,0.237500X0.287500X0.237500X-0.287500X0.237500X-0.287500X-0.237500X0.287500X-0.237500X0*%
%ADD41RoundRect,0.250000X0.337500X0.475000X-0.337500X0.475000X-0.337500X-0.475000X0.337500X-0.475000X0*%
%ADD42RoundRect,0.250000X-0.412500X-0.650000X0.412500X-0.650000X0.412500X0.650000X-0.412500X0.650000X0*%
%ADD43R,2.290000X3.000000*%
G04 APERTURE END LIST*
D10*
%TO.C,C11*%
X33750000Y-46137500D03*
X33750000Y-47862500D03*
%TD*%
D11*
%TO.C,C2*%
X-498600Y-24750000D03*
X2498600Y-24750000D03*
%TD*%
D10*
%TO.C,C3*%
X10200000Y-41037500D03*
X10200000Y-42762500D03*
%TD*%
D12*
%TO.C,C5*%
X-825000Y-29500000D03*
X1250000Y-29500000D03*
%TD*%
D13*
%TO.C,J21*%
X58000000Y-56000000D03*
D14*
X58000000Y-58540000D03*
X58000000Y-61080000D03*
%TD*%
D15*
%TO.C,R1*%
X15750000Y-7087500D03*
X15750000Y-8912500D03*
%TD*%
D16*
%TO.C,Q3*%
X40832800Y-25500000D03*
X40832800Y-23595000D03*
X38750000Y-24547500D03*
%TD*%
D17*
%TO.C,C8*%
X10750000Y-36287500D03*
X10750000Y-34212500D03*
%TD*%
D18*
%TO.C,R22*%
X40412500Y-56250000D03*
X38587500Y-56250000D03*
%TD*%
D19*
%TO.C,R45*%
X54000000Y-13825000D03*
X54000000Y-12000000D03*
%TD*%
D13*
%TO.C,J17*%
X29000000Y-56000000D03*
D14*
X29000000Y-58540000D03*
X29000000Y-61080000D03*
%TD*%
D20*
%TO.C,D3*%
X7000000Y-18366400D03*
X7000000Y-22633600D03*
%TD*%
D15*
%TO.C,R14*%
X7500000Y-34337500D03*
X7500000Y-36162500D03*
%TD*%
D13*
%TO.C,J13*%
X0Y-56000000D03*
D14*
X0Y-58540000D03*
X0Y-61080000D03*
%TD*%
D19*
%TO.C,R11*%
X4750000Y-31412500D03*
X4750000Y-29587500D03*
%TD*%
D18*
%TO.C,R51*%
X11550000Y-15000000D03*
X9725000Y-15000000D03*
%TD*%
D21*
%TO.C,L1*%
X2600200Y-18500000D03*
X-600200Y-18500000D03*
%TD*%
D22*
%TO.C,R24*%
X38587500Y-54500000D03*
X40412500Y-54500000D03*
%TD*%
%TO.C,R49*%
X27087500Y-20500000D03*
X28912500Y-20500000D03*
%TD*%
%TO.C,R20*%
X42587500Y-56250000D03*
X44412500Y-56250000D03*
%TD*%
D13*
%TO.C,J7*%
X25000000Y7000000D03*
D14*
X25000000Y9540000D03*
X25000000Y12080000D03*
%TD*%
D22*
%TO.C,R12*%
X-912500Y-33000000D03*
X912500Y-33000000D03*
%TD*%
D15*
%TO.C,R23*%
X35750000Y-46087500D03*
X35750000Y-47912500D03*
%TD*%
D23*
%TO.C,U4*%
X26275000Y-46345000D03*
X26275000Y-47615000D03*
X26275000Y-48885000D03*
X26275000Y-50155000D03*
X31225000Y-50155000D03*
X31225000Y-48885000D03*
X31225000Y-47615000D03*
X31225000Y-46345000D03*
%TD*%
D18*
%TO.C,R41*%
X49750000Y-29000000D03*
X47925000Y-29000000D03*
%TD*%
D13*
%TO.C,J16*%
X25000000Y-56000000D03*
D14*
X25000000Y-58540000D03*
X25000000Y-61080000D03*
%TD*%
D24*
%TO.C,J3*%
X-1000000Y-43000000D03*
X-1000000Y-39500000D03*
%TD*%
D13*
%TO.C,J24*%
X14225000Y-61225000D03*
D14*
X16765000Y-61225000D03*
X19305000Y-61225000D03*
%TD*%
D25*
%TO.C,C14*%
X24362500Y-32500000D03*
X22637500Y-32500000D03*
%TD*%
D19*
%TO.C,R2*%
X17500000Y-7912500D03*
X17500000Y-6087500D03*
%TD*%
D26*
%TO.C,U2*%
X12019998Y-40999999D03*
X12019998Y-41499998D03*
X12019998Y-42000000D03*
X13500000Y-42000000D03*
X13500000Y-41499998D03*
X13500000Y-40999999D03*
%TD*%
D22*
%TO.C,R10*%
X6087500Y-50750000D03*
X7912500Y-50750000D03*
%TD*%
%TO.C,R28*%
X38587500Y-52750000D03*
X40412500Y-52750000D03*
%TD*%
D16*
%TO.C,Q2*%
X40874200Y-29702500D03*
X40874200Y-27797500D03*
X38791400Y-28750000D03*
%TD*%
D15*
%TO.C,R21*%
X50000000Y-47337500D03*
X50000000Y-49162500D03*
%TD*%
D22*
%TO.C,R3*%
X15750000Y5750000D03*
X17575000Y5750000D03*
%TD*%
D13*
%TO.C,J11*%
X54000000Y7000000D03*
D14*
X54000000Y9540000D03*
X54000000Y12080000D03*
%TD*%
D19*
%TO.C,R50*%
X25250000Y-24162500D03*
X25250000Y-22337500D03*
%TD*%
D27*
%TO.C,C15*%
X28500000Y-27500000D03*
X30225000Y-27500000D03*
%TD*%
D13*
%TO.C,J9*%
X33000000Y7000000D03*
D14*
X33000000Y9540000D03*
X33000000Y12080000D03*
%TD*%
D22*
%TO.C,R25*%
X42587500Y-54500000D03*
X44412500Y-54500000D03*
%TD*%
%TO.C,R16*%
X9725000Y-12000000D03*
X11550000Y-12000000D03*
%TD*%
D15*
%TO.C,R19*%
X50000000Y-43425000D03*
X50000000Y-45250000D03*
%TD*%
D19*
%TO.C,R44*%
X51000000Y-15912500D03*
X51000000Y-14087500D03*
%TD*%
D10*
%TO.C,C12*%
X23500000Y-46337500D03*
X23500000Y-48062500D03*
%TD*%
D13*
%TO.C,J8*%
X29000000Y7000000D03*
D14*
X29000000Y9540000D03*
X29000000Y12080000D03*
%TD*%
D28*
%TO.C,H4*%
X58000000Y-49000000D03*
D29*
X58000000Y-49000000D03*
%TD*%
D30*
%TO.C,C1*%
X13409600Y-29862500D03*
X13409600Y-28137500D03*
%TD*%
D28*
%TO.C,H1*%
X0Y0D03*
D29*
X0Y0D03*
%TD*%
D13*
%TO.C,J12*%
X58000000Y7000000D03*
D14*
X58000000Y9540000D03*
X58000000Y12080000D03*
%TD*%
D31*
%TO.C,U8*%
X27789700Y-23749999D03*
X27789700Y-24250000D03*
X27789700Y-24750000D03*
X27789700Y-25250001D03*
D32*
X28500001Y-25456300D03*
X29000000Y-25456300D03*
X29499999Y-25456300D03*
D31*
X30210300Y-25250001D03*
X30210300Y-24750000D03*
X30210300Y-24250000D03*
X30210300Y-23749999D03*
D32*
X29499999Y-23543700D03*
X29000000Y-23543700D03*
X28500001Y-23543700D03*
%TD*%
D33*
%TO.C,Q1*%
X10547500Y-50832800D03*
X12452500Y-50832800D03*
X11500000Y-48750000D03*
%TD*%
D13*
%TO.C,J22*%
X14225000Y12275000D03*
D14*
X16765000Y12275000D03*
X19305000Y12275000D03*
%TD*%
D18*
%TO.C,R27*%
X44412500Y-52750000D03*
X42587500Y-52750000D03*
%TD*%
D27*
%TO.C,C13*%
X47362500Y-15750000D03*
X45637500Y-15750000D03*
%TD*%
%TO.C,C9*%
X9775000Y-9000000D03*
X11500000Y-9000000D03*
%TD*%
D19*
%TO.C,R46*%
X57000000Y-11912500D03*
X57000000Y-10087500D03*
%TD*%
D18*
%TO.C,R18*%
X21912500Y-52000000D03*
X20087500Y-52000000D03*
%TD*%
D15*
%TO.C,R48*%
X38000000Y-33087500D03*
X38000000Y-34912500D03*
%TD*%
D28*
%TO.C,H2*%
X58000000Y0D03*
D29*
X58000000Y0D03*
%TD*%
D27*
%TO.C,C10*%
X9775000Y-6000000D03*
X11500000Y-6000000D03*
%TD*%
D34*
%TO.C,U3*%
X14299400Y-22474999D03*
X14299400Y-21825001D03*
X14299400Y-21174999D03*
X14299400Y-20525001D03*
X11200600Y-20525001D03*
X11200600Y-21174999D03*
X11200600Y-21825001D03*
X11200600Y-22474999D03*
D35*
X12394400Y-21500000D03*
%TD*%
D36*
%TO.C,L2*%
X2857500Y-9250000D03*
X-2857500Y-9250000D03*
%TD*%
D37*
%TO.C,U1*%
X6962500Y-29850002D03*
X6962500Y-30500000D03*
X6962500Y-31150002D03*
X6962500Y-31800000D03*
X11356700Y-31800000D03*
X11356700Y-31150002D03*
X11356700Y-30500000D03*
X11356700Y-29850002D03*
%TD*%
D13*
%TO.C,J4*%
X0Y7000000D03*
D14*
X0Y9540000D03*
X0Y12080000D03*
%TD*%
D13*
%TO.C,J20*%
X54000000Y-56000000D03*
D14*
X54000000Y-58540000D03*
X54000000Y-61080000D03*
%TD*%
D38*
%TO.C,U7*%
X24500001Y-40250000D03*
X25150002Y-40250000D03*
X25800001Y-40250000D03*
X26450002Y-40250000D03*
X27100000Y-40250000D03*
X27750002Y-40250000D03*
X28400000Y-40250000D03*
X29049999Y-40250000D03*
X29700000Y-40250000D03*
X30349999Y-40250000D03*
X31000000Y-40250000D03*
X31649999Y-40250000D03*
X32300000Y-40250000D03*
X32949999Y-40250000D03*
X32950001Y-34408000D03*
X32300000Y-34408000D03*
X31650001Y-34408000D03*
X31000000Y-34408000D03*
X30350002Y-34408000D03*
X29700000Y-34408000D03*
X29050002Y-34408000D03*
X28400000Y-34408000D03*
X27750002Y-34408000D03*
X27100000Y-34408000D03*
X26450002Y-34408000D03*
X25800001Y-34408000D03*
X25150002Y-34408000D03*
X24500001Y-34408000D03*
%TD*%
D39*
%TO.C,D1*%
X11875000Y5750000D03*
X13625000Y5750000D03*
%TD*%
D13*
%TO.C,J18*%
X33000000Y-56000000D03*
D14*
X33000000Y-58540000D03*
X33000000Y-61080000D03*
%TD*%
D40*
%TO.C,D2*%
X7875000Y-47000000D03*
X6125000Y-47000000D03*
%TD*%
D41*
%TO.C,C6*%
X6750000Y-27000000D03*
X4675000Y-27000000D03*
%TD*%
D18*
%TO.C,R42*%
X49662500Y-26000000D03*
X47837500Y-26000000D03*
%TD*%
D15*
%TO.C,R17*%
X48250000Y-43425000D03*
X48250000Y-45250000D03*
%TD*%
D10*
%TO.C,C16*%
X32250000Y-25387500D03*
X32250000Y-27112500D03*
%TD*%
D13*
%TO.C,J25*%
X39225000Y-61225000D03*
D14*
X41765000Y-61225000D03*
X44305000Y-61225000D03*
%TD*%
D13*
%TO.C,J5*%
X4000000Y7000000D03*
D14*
X4000000Y9540000D03*
X4000000Y12080000D03*
%TD*%
D13*
%TO.C,J15*%
X8000000Y-56000000D03*
D14*
X8000000Y-58540000D03*
X8000000Y-61080000D03*
%TD*%
D13*
%TO.C,J6*%
X8000000Y7000000D03*
D14*
X8000000Y9540000D03*
X8000000Y12080000D03*
%TD*%
D28*
%TO.C,H3*%
X0Y-49000000D03*
D29*
X0Y-49000000D03*
%TD*%
D18*
%TO.C,R43*%
X48000000Y-23000000D03*
X49825000Y-23000000D03*
%TD*%
D14*
%TO.C,J2*%
X54500000Y-30875000D03*
X57040000Y-30875000D03*
X54500000Y-28335000D03*
X57040000Y-28335000D03*
X54500000Y-25795000D03*
X57040000Y-25795000D03*
X54500000Y-23255000D03*
X57040000Y-23255000D03*
X54500000Y-20715000D03*
X57040000Y-20715000D03*
X54500000Y-18175000D03*
D13*
X57040000Y-18175000D03*
%TD*%
D18*
%TO.C,R47*%
X40337500Y-16000000D03*
X42162500Y-16000000D03*
%TD*%
D39*
%TO.C,D4*%
X16125000Y-52000000D03*
X17875000Y-52000000D03*
%TD*%
D42*
%TO.C,R15*%
X13187500Y-34750000D03*
X16312500Y-34750000D03*
%TD*%
D25*
%TO.C,C7*%
X13662500Y-43700000D03*
X11937500Y-43700000D03*
%TD*%
D13*
%TO.C,J23*%
X39500000Y12250000D03*
D14*
X42040000Y12250000D03*
X44580000Y12250000D03*
%TD*%
D13*
%TO.C,J10*%
X50000000Y7000000D03*
D14*
X50000000Y9540000D03*
X50000000Y12080000D03*
%TD*%
D13*
%TO.C,J1*%
X4870000Y-1290000D03*
D14*
X4870000Y1250000D03*
X7410000Y-1290000D03*
X7410000Y1250000D03*
X9950000Y-1290000D03*
X9950000Y1250000D03*
X12490000Y-1290000D03*
X12490000Y1250000D03*
X15030000Y-1290000D03*
X15030000Y1250000D03*
X17570000Y-1290000D03*
X17570000Y1250000D03*
X20110000Y-1290000D03*
X20110000Y1250000D03*
X22650000Y-1290000D03*
X22650000Y1250000D03*
X25190000Y-1290000D03*
X25190000Y1250000D03*
X27730000Y-1290000D03*
X27730000Y1250000D03*
X30270000Y-1290000D03*
X30270000Y1250000D03*
X32810000Y-1290000D03*
X32810000Y1250000D03*
X35350000Y-1290000D03*
X35350000Y1250000D03*
X37890000Y-1290000D03*
X37890000Y1250000D03*
X40430000Y-1290000D03*
X40430000Y1250000D03*
X42970000Y-1290000D03*
X42970000Y1250000D03*
X45510000Y-1290000D03*
X45510000Y1250000D03*
X48050000Y-1290000D03*
X48050000Y1250000D03*
X50590000Y-1290000D03*
X50590000Y1250000D03*
X53130000Y-1290000D03*
X53130000Y1250000D03*
%TD*%
D10*
%TO.C,C4*%
X15400000Y-41137500D03*
X15400000Y-42862500D03*
%TD*%
D13*
%TO.C,J19*%
X50000000Y-56000000D03*
D14*
X50000000Y-58540000D03*
X50000000Y-61080000D03*
%TD*%
D15*
%TO.C,R26*%
X48250000Y-47337500D03*
X48250000Y-49162500D03*
%TD*%
D38*
%TO.C,U6*%
X45475000Y-14000000D03*
X44824999Y-14000000D03*
X44175000Y-14000000D03*
X43524999Y-14000000D03*
X42875001Y-14000000D03*
X42224999Y-14000000D03*
X41575001Y-14000000D03*
X40924999Y-14000000D03*
X40275001Y-14000000D03*
X39624999Y-14000000D03*
X38975001Y-14000000D03*
X38325000Y-14000000D03*
X37675001Y-14000000D03*
X37025000Y-14000000D03*
X37025002Y-8158000D03*
X37675001Y-8158000D03*
X38325002Y-8158000D03*
X38975001Y-8158000D03*
X39625002Y-8158000D03*
X40275001Y-8158000D03*
X40925002Y-8158000D03*
X41575001Y-8158000D03*
X42224999Y-8158000D03*
X42875001Y-8158000D03*
X43524999Y-8158000D03*
X44175000Y-8158000D03*
X44824999Y-8158000D03*
X45475000Y-8158000D03*
%TD*%
D16*
%TO.C,Q4*%
X40791400Y-21250000D03*
X40791400Y-19345000D03*
X38708600Y-20297500D03*
%TD*%
D23*
%TO.C,U5*%
X38955000Y-45595000D03*
X38955000Y-46865000D03*
X38955000Y-48135000D03*
X38955000Y-49405000D03*
X43905000Y-49405000D03*
X43905000Y-48135000D03*
X43905000Y-46865000D03*
X43905000Y-45595000D03*
D43*
X41430000Y-47500000D03*
%TD*%
D22*
%TO.C,R13*%
X837500Y-36000000D03*
X2662500Y-36000000D03*
%TD*%
D13*
%TO.C,J14*%
X4000000Y-56000000D03*
D14*
X4000000Y-58540000D03*
X4000000Y-61080000D03*
%TD*%
M02*
