%TF.GenerationSoftware,KiCad,Pcbnew,8.0.6-8.0.6-0~ubuntu24.04.1*%
%TF.CreationDate,2024-11-11T20:35:34-05:00*%
%TF.ProjectId,Hexapod_bot,48657861-706f-4645-9f62-6f742e6b6963,rev?*%
%TF.SameCoordinates,Original*%
%TF.FileFunction,Legend,Bot*%
%TF.FilePolarity,Positive*%
%FSLAX46Y46*%
G04 Gerber Fmt 4.6, Leading zero omitted, Abs format (unit mm)*
G04 Created by KiCad (PCBNEW 8.0.6-8.0.6-0~ubuntu24.04.1) date 2024-11-11 20:35:34*
%MOMM*%
%LPD*%
G01*
G04 APERTURE LIST*
%ADD10C,0.150000*%
%ADD11C,0.120000*%
G04 APERTURE END LIST*
D10*
X51634819Y-7444642D02*
X51158628Y-7111309D01*
X51634819Y-6873214D02*
X50634819Y-6873214D01*
X50634819Y-6873214D02*
X50634819Y-7254166D01*
X50634819Y-7254166D02*
X50682438Y-7349404D01*
X50682438Y-7349404D02*
X50730057Y-7397023D01*
X50730057Y-7397023D02*
X50825295Y-7444642D01*
X50825295Y-7444642D02*
X50968152Y-7444642D01*
X50968152Y-7444642D02*
X51063390Y-7397023D01*
X51063390Y-7397023D02*
X51111009Y-7349404D01*
X51111009Y-7349404D02*
X51158628Y-7254166D01*
X51158628Y-7254166D02*
X51158628Y-6873214D01*
X50634819Y-7777976D02*
X50634819Y-8397023D01*
X50634819Y-8397023D02*
X51015771Y-8063690D01*
X51015771Y-8063690D02*
X51015771Y-8206547D01*
X51015771Y-8206547D02*
X51063390Y-8301785D01*
X51063390Y-8301785D02*
X51111009Y-8349404D01*
X51111009Y-8349404D02*
X51206247Y-8397023D01*
X51206247Y-8397023D02*
X51444342Y-8397023D01*
X51444342Y-8397023D02*
X51539580Y-8349404D01*
X51539580Y-8349404D02*
X51587200Y-8301785D01*
X51587200Y-8301785D02*
X51634819Y-8206547D01*
X51634819Y-8206547D02*
X51634819Y-7920833D01*
X51634819Y-7920833D02*
X51587200Y-7825595D01*
X51587200Y-7825595D02*
X51539580Y-7777976D01*
X50968152Y-9254166D02*
X51634819Y-9254166D01*
X50587200Y-9016071D02*
X51301485Y-8777976D01*
X51301485Y-8777976D02*
X51301485Y-9397023D01*
X54384819Y-7444642D02*
X53908628Y-7111309D01*
X54384819Y-6873214D02*
X53384819Y-6873214D01*
X53384819Y-6873214D02*
X53384819Y-7254166D01*
X53384819Y-7254166D02*
X53432438Y-7349404D01*
X53432438Y-7349404D02*
X53480057Y-7397023D01*
X53480057Y-7397023D02*
X53575295Y-7444642D01*
X53575295Y-7444642D02*
X53718152Y-7444642D01*
X53718152Y-7444642D02*
X53813390Y-7397023D01*
X53813390Y-7397023D02*
X53861009Y-7349404D01*
X53861009Y-7349404D02*
X53908628Y-7254166D01*
X53908628Y-7254166D02*
X53908628Y-6873214D01*
X53384819Y-7777976D02*
X53384819Y-8397023D01*
X53384819Y-8397023D02*
X53765771Y-8063690D01*
X53765771Y-8063690D02*
X53765771Y-8206547D01*
X53765771Y-8206547D02*
X53813390Y-8301785D01*
X53813390Y-8301785D02*
X53861009Y-8349404D01*
X53861009Y-8349404D02*
X53956247Y-8397023D01*
X53956247Y-8397023D02*
X54194342Y-8397023D01*
X54194342Y-8397023D02*
X54289580Y-8349404D01*
X54289580Y-8349404D02*
X54337200Y-8301785D01*
X54337200Y-8301785D02*
X54384819Y-8206547D01*
X54384819Y-8206547D02*
X54384819Y-7920833D01*
X54384819Y-7920833D02*
X54337200Y-7825595D01*
X54337200Y-7825595D02*
X54289580Y-7777976D01*
X54384819Y-9349404D02*
X54384819Y-8777976D01*
X54384819Y-9063690D02*
X53384819Y-9063690D01*
X53384819Y-9063690D02*
X53527676Y-8968452D01*
X53527676Y-8968452D02*
X53622914Y-8873214D01*
X53622914Y-8873214D02*
X53670533Y-8777976D01*
X48884819Y-7444642D02*
X48408628Y-7111309D01*
X48884819Y-6873214D02*
X47884819Y-6873214D01*
X47884819Y-6873214D02*
X47884819Y-7254166D01*
X47884819Y-7254166D02*
X47932438Y-7349404D01*
X47932438Y-7349404D02*
X47980057Y-7397023D01*
X47980057Y-7397023D02*
X48075295Y-7444642D01*
X48075295Y-7444642D02*
X48218152Y-7444642D01*
X48218152Y-7444642D02*
X48313390Y-7397023D01*
X48313390Y-7397023D02*
X48361009Y-7349404D01*
X48361009Y-7349404D02*
X48408628Y-7254166D01*
X48408628Y-7254166D02*
X48408628Y-6873214D01*
X47884819Y-7777976D02*
X47884819Y-8397023D01*
X47884819Y-8397023D02*
X48265771Y-8063690D01*
X48265771Y-8063690D02*
X48265771Y-8206547D01*
X48265771Y-8206547D02*
X48313390Y-8301785D01*
X48313390Y-8301785D02*
X48361009Y-8349404D01*
X48361009Y-8349404D02*
X48456247Y-8397023D01*
X48456247Y-8397023D02*
X48694342Y-8397023D01*
X48694342Y-8397023D02*
X48789580Y-8349404D01*
X48789580Y-8349404D02*
X48837200Y-8301785D01*
X48837200Y-8301785D02*
X48884819Y-8206547D01*
X48884819Y-8206547D02*
X48884819Y-7920833D01*
X48884819Y-7920833D02*
X48837200Y-7825595D01*
X48837200Y-7825595D02*
X48789580Y-7777976D01*
X47884819Y-9016071D02*
X47884819Y-9111309D01*
X47884819Y-9111309D02*
X47932438Y-9206547D01*
X47932438Y-9206547D02*
X47980057Y-9254166D01*
X47980057Y-9254166D02*
X48075295Y-9301785D01*
X48075295Y-9301785D02*
X48265771Y-9349404D01*
X48265771Y-9349404D02*
X48503866Y-9349404D01*
X48503866Y-9349404D02*
X48694342Y-9301785D01*
X48694342Y-9301785D02*
X48789580Y-9254166D01*
X48789580Y-9254166D02*
X48837200Y-9206547D01*
X48837200Y-9206547D02*
X48884819Y-9111309D01*
X48884819Y-9111309D02*
X48884819Y-9016071D01*
X48884819Y-9016071D02*
X48837200Y-8920833D01*
X48837200Y-8920833D02*
X48789580Y-8873214D01*
X48789580Y-8873214D02*
X48694342Y-8825595D01*
X48694342Y-8825595D02*
X48503866Y-8777976D01*
X48503866Y-8777976D02*
X48265771Y-8777976D01*
X48265771Y-8777976D02*
X48075295Y-8825595D01*
X48075295Y-8825595D02*
X47980057Y-8873214D01*
X47980057Y-8873214D02*
X47932438Y-8920833D01*
X47932438Y-8920833D02*
X47884819Y-9016071D01*
X35024819Y-39357142D02*
X34548628Y-39023809D01*
X35024819Y-38785714D02*
X34024819Y-38785714D01*
X34024819Y-38785714D02*
X34024819Y-39166666D01*
X34024819Y-39166666D02*
X34072438Y-39261904D01*
X34072438Y-39261904D02*
X34120057Y-39309523D01*
X34120057Y-39309523D02*
X34215295Y-39357142D01*
X34215295Y-39357142D02*
X34358152Y-39357142D01*
X34358152Y-39357142D02*
X34453390Y-39309523D01*
X34453390Y-39309523D02*
X34501009Y-39261904D01*
X34501009Y-39261904D02*
X34548628Y-39166666D01*
X34548628Y-39166666D02*
X34548628Y-38785714D01*
X34024819Y-39690476D02*
X34024819Y-40309523D01*
X34024819Y-40309523D02*
X34405771Y-39976190D01*
X34405771Y-39976190D02*
X34405771Y-40119047D01*
X34405771Y-40119047D02*
X34453390Y-40214285D01*
X34453390Y-40214285D02*
X34501009Y-40261904D01*
X34501009Y-40261904D02*
X34596247Y-40309523D01*
X34596247Y-40309523D02*
X34834342Y-40309523D01*
X34834342Y-40309523D02*
X34929580Y-40261904D01*
X34929580Y-40261904D02*
X34977200Y-40214285D01*
X34977200Y-40214285D02*
X35024819Y-40119047D01*
X35024819Y-40119047D02*
X35024819Y-39833333D01*
X35024819Y-39833333D02*
X34977200Y-39738095D01*
X34977200Y-39738095D02*
X34929580Y-39690476D01*
X34453390Y-40880952D02*
X34405771Y-40785714D01*
X34405771Y-40785714D02*
X34358152Y-40738095D01*
X34358152Y-40738095D02*
X34262914Y-40690476D01*
X34262914Y-40690476D02*
X34215295Y-40690476D01*
X34215295Y-40690476D02*
X34120057Y-40738095D01*
X34120057Y-40738095D02*
X34072438Y-40785714D01*
X34072438Y-40785714D02*
X34024819Y-40880952D01*
X34024819Y-40880952D02*
X34024819Y-41071428D01*
X34024819Y-41071428D02*
X34072438Y-41166666D01*
X34072438Y-41166666D02*
X34120057Y-41214285D01*
X34120057Y-41214285D02*
X34215295Y-41261904D01*
X34215295Y-41261904D02*
X34262914Y-41261904D01*
X34262914Y-41261904D02*
X34358152Y-41214285D01*
X34358152Y-41214285D02*
X34405771Y-41166666D01*
X34405771Y-41166666D02*
X34453390Y-41071428D01*
X34453390Y-41071428D02*
X34453390Y-40880952D01*
X34453390Y-40880952D02*
X34501009Y-40785714D01*
X34501009Y-40785714D02*
X34548628Y-40738095D01*
X34548628Y-40738095D02*
X34643866Y-40690476D01*
X34643866Y-40690476D02*
X34834342Y-40690476D01*
X34834342Y-40690476D02*
X34929580Y-40738095D01*
X34929580Y-40738095D02*
X34977200Y-40785714D01*
X34977200Y-40785714D02*
X35024819Y-40880952D01*
X35024819Y-40880952D02*
X35024819Y-41071428D01*
X35024819Y-41071428D02*
X34977200Y-41166666D01*
X34977200Y-41166666D02*
X34929580Y-41214285D01*
X34929580Y-41214285D02*
X34834342Y-41261904D01*
X34834342Y-41261904D02*
X34643866Y-41261904D01*
X34643866Y-41261904D02*
X34548628Y-41214285D01*
X34548628Y-41214285D02*
X34501009Y-41166666D01*
X34501009Y-41166666D02*
X34453390Y-41071428D01*
X23024819Y-39357142D02*
X22548628Y-39023809D01*
X23024819Y-38785714D02*
X22024819Y-38785714D01*
X22024819Y-38785714D02*
X22024819Y-39166666D01*
X22024819Y-39166666D02*
X22072438Y-39261904D01*
X22072438Y-39261904D02*
X22120057Y-39309523D01*
X22120057Y-39309523D02*
X22215295Y-39357142D01*
X22215295Y-39357142D02*
X22358152Y-39357142D01*
X22358152Y-39357142D02*
X22453390Y-39309523D01*
X22453390Y-39309523D02*
X22501009Y-39261904D01*
X22501009Y-39261904D02*
X22548628Y-39166666D01*
X22548628Y-39166666D02*
X22548628Y-38785714D01*
X22358152Y-40214285D02*
X23024819Y-40214285D01*
X21977200Y-39976190D02*
X22691485Y-39738095D01*
X22691485Y-39738095D02*
X22691485Y-40357142D01*
X22024819Y-40928571D02*
X22024819Y-41023809D01*
X22024819Y-41023809D02*
X22072438Y-41119047D01*
X22072438Y-41119047D02*
X22120057Y-41166666D01*
X22120057Y-41166666D02*
X22215295Y-41214285D01*
X22215295Y-41214285D02*
X22405771Y-41261904D01*
X22405771Y-41261904D02*
X22643866Y-41261904D01*
X22643866Y-41261904D02*
X22834342Y-41214285D01*
X22834342Y-41214285D02*
X22929580Y-41166666D01*
X22929580Y-41166666D02*
X22977200Y-41119047D01*
X22977200Y-41119047D02*
X23024819Y-41023809D01*
X23024819Y-41023809D02*
X23024819Y-40928571D01*
X23024819Y-40928571D02*
X22977200Y-40833333D01*
X22977200Y-40833333D02*
X22929580Y-40785714D01*
X22929580Y-40785714D02*
X22834342Y-40738095D01*
X22834342Y-40738095D02*
X22643866Y-40690476D01*
X22643866Y-40690476D02*
X22405771Y-40690476D01*
X22405771Y-40690476D02*
X22215295Y-40738095D01*
X22215295Y-40738095D02*
X22120057Y-40785714D01*
X22120057Y-40785714D02*
X22072438Y-40833333D01*
X22072438Y-40833333D02*
X22024819Y-40928571D01*
X29024819Y-39357142D02*
X28548628Y-39023809D01*
X29024819Y-38785714D02*
X28024819Y-38785714D01*
X28024819Y-38785714D02*
X28024819Y-39166666D01*
X28024819Y-39166666D02*
X28072438Y-39261904D01*
X28072438Y-39261904D02*
X28120057Y-39309523D01*
X28120057Y-39309523D02*
X28215295Y-39357142D01*
X28215295Y-39357142D02*
X28358152Y-39357142D01*
X28358152Y-39357142D02*
X28453390Y-39309523D01*
X28453390Y-39309523D02*
X28501009Y-39261904D01*
X28501009Y-39261904D02*
X28548628Y-39166666D01*
X28548628Y-39166666D02*
X28548628Y-38785714D01*
X28024819Y-39690476D02*
X28024819Y-40309523D01*
X28024819Y-40309523D02*
X28405771Y-39976190D01*
X28405771Y-39976190D02*
X28405771Y-40119047D01*
X28405771Y-40119047D02*
X28453390Y-40214285D01*
X28453390Y-40214285D02*
X28501009Y-40261904D01*
X28501009Y-40261904D02*
X28596247Y-40309523D01*
X28596247Y-40309523D02*
X28834342Y-40309523D01*
X28834342Y-40309523D02*
X28929580Y-40261904D01*
X28929580Y-40261904D02*
X28977200Y-40214285D01*
X28977200Y-40214285D02*
X29024819Y-40119047D01*
X29024819Y-40119047D02*
X29024819Y-39833333D01*
X29024819Y-39833333D02*
X28977200Y-39738095D01*
X28977200Y-39738095D02*
X28929580Y-39690476D01*
X29024819Y-40785714D02*
X29024819Y-40976190D01*
X29024819Y-40976190D02*
X28977200Y-41071428D01*
X28977200Y-41071428D02*
X28929580Y-41119047D01*
X28929580Y-41119047D02*
X28786723Y-41214285D01*
X28786723Y-41214285D02*
X28596247Y-41261904D01*
X28596247Y-41261904D02*
X28215295Y-41261904D01*
X28215295Y-41261904D02*
X28120057Y-41214285D01*
X28120057Y-41214285D02*
X28072438Y-41166666D01*
X28072438Y-41166666D02*
X28024819Y-41071428D01*
X28024819Y-41071428D02*
X28024819Y-40880952D01*
X28024819Y-40880952D02*
X28072438Y-40785714D01*
X28072438Y-40785714D02*
X28120057Y-40738095D01*
X28120057Y-40738095D02*
X28215295Y-40690476D01*
X28215295Y-40690476D02*
X28453390Y-40690476D01*
X28453390Y-40690476D02*
X28548628Y-40738095D01*
X28548628Y-40738095D02*
X28596247Y-40785714D01*
X28596247Y-40785714D02*
X28643866Y-40880952D01*
X28643866Y-40880952D02*
X28643866Y-41071428D01*
X28643866Y-41071428D02*
X28596247Y-41166666D01*
X28596247Y-41166666D02*
X28548628Y-41214285D01*
X28548628Y-41214285D02*
X28453390Y-41261904D01*
X50166666Y-23524819D02*
X50499999Y-23048628D01*
X50738094Y-23524819D02*
X50738094Y-22524819D01*
X50738094Y-22524819D02*
X50357142Y-22524819D01*
X50357142Y-22524819D02*
X50261904Y-22572438D01*
X50261904Y-22572438D02*
X50214285Y-22620057D01*
X50214285Y-22620057D02*
X50166666Y-22715295D01*
X50166666Y-22715295D02*
X50166666Y-22858152D01*
X50166666Y-22858152D02*
X50214285Y-22953390D01*
X50214285Y-22953390D02*
X50261904Y-23001009D01*
X50261904Y-23001009D02*
X50357142Y-23048628D01*
X50357142Y-23048628D02*
X50738094Y-23048628D01*
X49690475Y-23524819D02*
X49499999Y-23524819D01*
X49499999Y-23524819D02*
X49404761Y-23477200D01*
X49404761Y-23477200D02*
X49357142Y-23429580D01*
X49357142Y-23429580D02*
X49261904Y-23286723D01*
X49261904Y-23286723D02*
X49214285Y-23096247D01*
X49214285Y-23096247D02*
X49214285Y-22715295D01*
X49214285Y-22715295D02*
X49261904Y-22620057D01*
X49261904Y-22620057D02*
X49309523Y-22572438D01*
X49309523Y-22572438D02*
X49404761Y-22524819D01*
X49404761Y-22524819D02*
X49595237Y-22524819D01*
X49595237Y-22524819D02*
X49690475Y-22572438D01*
X49690475Y-22572438D02*
X49738094Y-22620057D01*
X49738094Y-22620057D02*
X49785713Y-22715295D01*
X49785713Y-22715295D02*
X49785713Y-22953390D01*
X49785713Y-22953390D02*
X49738094Y-23048628D01*
X49738094Y-23048628D02*
X49690475Y-23096247D01*
X49690475Y-23096247D02*
X49595237Y-23143866D01*
X49595237Y-23143866D02*
X49404761Y-23143866D01*
X49404761Y-23143866D02*
X49309523Y-23096247D01*
X49309523Y-23096247D02*
X49261904Y-23048628D01*
X49261904Y-23048628D02*
X49214285Y-22953390D01*
X40384819Y-7519649D02*
X39908628Y-7186316D01*
X40384819Y-6948221D02*
X39384819Y-6948221D01*
X39384819Y-6948221D02*
X39384819Y-7329173D01*
X39384819Y-7329173D02*
X39432438Y-7424411D01*
X39432438Y-7424411D02*
X39480057Y-7472030D01*
X39480057Y-7472030D02*
X39575295Y-7519649D01*
X39575295Y-7519649D02*
X39718152Y-7519649D01*
X39718152Y-7519649D02*
X39813390Y-7472030D01*
X39813390Y-7472030D02*
X39861009Y-7424411D01*
X39861009Y-7424411D02*
X39908628Y-7329173D01*
X39908628Y-7329173D02*
X39908628Y-6948221D01*
X39384819Y-7852983D02*
X39384819Y-8472030D01*
X39384819Y-8472030D02*
X39765771Y-8138697D01*
X39765771Y-8138697D02*
X39765771Y-8281554D01*
X39765771Y-8281554D02*
X39813390Y-8376792D01*
X39813390Y-8376792D02*
X39861009Y-8424411D01*
X39861009Y-8424411D02*
X39956247Y-8472030D01*
X39956247Y-8472030D02*
X40194342Y-8472030D01*
X40194342Y-8472030D02*
X40289580Y-8424411D01*
X40289580Y-8424411D02*
X40337200Y-8376792D01*
X40337200Y-8376792D02*
X40384819Y-8281554D01*
X40384819Y-8281554D02*
X40384819Y-7995840D01*
X40384819Y-7995840D02*
X40337200Y-7900602D01*
X40337200Y-7900602D02*
X40289580Y-7852983D01*
X39480057Y-8852983D02*
X39432438Y-8900602D01*
X39432438Y-8900602D02*
X39384819Y-8995840D01*
X39384819Y-8995840D02*
X39384819Y-9233935D01*
X39384819Y-9233935D02*
X39432438Y-9329173D01*
X39432438Y-9329173D02*
X39480057Y-9376792D01*
X39480057Y-9376792D02*
X39575295Y-9424411D01*
X39575295Y-9424411D02*
X39670533Y-9424411D01*
X39670533Y-9424411D02*
X39813390Y-9376792D01*
X39813390Y-9376792D02*
X40384819Y-8805364D01*
X40384819Y-8805364D02*
X40384819Y-9424411D01*
X50404166Y-31774819D02*
X50737499Y-31298628D01*
X50975594Y-31774819D02*
X50975594Y-30774819D01*
X50975594Y-30774819D02*
X50594642Y-30774819D01*
X50594642Y-30774819D02*
X50499404Y-30822438D01*
X50499404Y-30822438D02*
X50451785Y-30870057D01*
X50451785Y-30870057D02*
X50404166Y-30965295D01*
X50404166Y-30965295D02*
X50404166Y-31108152D01*
X50404166Y-31108152D02*
X50451785Y-31203390D01*
X50451785Y-31203390D02*
X50499404Y-31251009D01*
X50499404Y-31251009D02*
X50594642Y-31298628D01*
X50594642Y-31298628D02*
X50975594Y-31298628D01*
X49547023Y-31108152D02*
X49547023Y-31774819D01*
X49785118Y-30727200D02*
X50023213Y-31441485D01*
X50023213Y-31441485D02*
X49404166Y-31441485D01*
X50329166Y-29024819D02*
X50662499Y-28548628D01*
X50900594Y-29024819D02*
X50900594Y-28024819D01*
X50900594Y-28024819D02*
X50519642Y-28024819D01*
X50519642Y-28024819D02*
X50424404Y-28072438D01*
X50424404Y-28072438D02*
X50376785Y-28120057D01*
X50376785Y-28120057D02*
X50329166Y-28215295D01*
X50329166Y-28215295D02*
X50329166Y-28358152D01*
X50329166Y-28358152D02*
X50376785Y-28453390D01*
X50376785Y-28453390D02*
X50424404Y-28501009D01*
X50424404Y-28501009D02*
X50519642Y-28548628D01*
X50519642Y-28548628D02*
X50900594Y-28548628D01*
X49757737Y-28453390D02*
X49852975Y-28405771D01*
X49852975Y-28405771D02*
X49900594Y-28358152D01*
X49900594Y-28358152D02*
X49948213Y-28262914D01*
X49948213Y-28262914D02*
X49948213Y-28215295D01*
X49948213Y-28215295D02*
X49900594Y-28120057D01*
X49900594Y-28120057D02*
X49852975Y-28072438D01*
X49852975Y-28072438D02*
X49757737Y-28024819D01*
X49757737Y-28024819D02*
X49567261Y-28024819D01*
X49567261Y-28024819D02*
X49472023Y-28072438D01*
X49472023Y-28072438D02*
X49424404Y-28120057D01*
X49424404Y-28120057D02*
X49376785Y-28215295D01*
X49376785Y-28215295D02*
X49376785Y-28262914D01*
X49376785Y-28262914D02*
X49424404Y-28358152D01*
X49424404Y-28358152D02*
X49472023Y-28405771D01*
X49472023Y-28405771D02*
X49567261Y-28453390D01*
X49567261Y-28453390D02*
X49757737Y-28453390D01*
X49757737Y-28453390D02*
X49852975Y-28501009D01*
X49852975Y-28501009D02*
X49900594Y-28548628D01*
X49900594Y-28548628D02*
X49948213Y-28643866D01*
X49948213Y-28643866D02*
X49948213Y-28834342D01*
X49948213Y-28834342D02*
X49900594Y-28929580D01*
X49900594Y-28929580D02*
X49852975Y-28977200D01*
X49852975Y-28977200D02*
X49757737Y-29024819D01*
X49757737Y-29024819D02*
X49567261Y-29024819D01*
X49567261Y-29024819D02*
X49472023Y-28977200D01*
X49472023Y-28977200D02*
X49424404Y-28929580D01*
X49424404Y-28929580D02*
X49376785Y-28834342D01*
X49376785Y-28834342D02*
X49376785Y-28643866D01*
X49376785Y-28643866D02*
X49424404Y-28548628D01*
X49424404Y-28548628D02*
X49472023Y-28501009D01*
X49472023Y-28501009D02*
X49567261Y-28453390D01*
X20024819Y-39357142D02*
X19548628Y-39023809D01*
X20024819Y-38785714D02*
X19024819Y-38785714D01*
X19024819Y-38785714D02*
X19024819Y-39166666D01*
X19024819Y-39166666D02*
X19072438Y-39261904D01*
X19072438Y-39261904D02*
X19120057Y-39309523D01*
X19120057Y-39309523D02*
X19215295Y-39357142D01*
X19215295Y-39357142D02*
X19358152Y-39357142D01*
X19358152Y-39357142D02*
X19453390Y-39309523D01*
X19453390Y-39309523D02*
X19501009Y-39261904D01*
X19501009Y-39261904D02*
X19548628Y-39166666D01*
X19548628Y-39166666D02*
X19548628Y-38785714D01*
X19024819Y-39690476D02*
X19024819Y-40309523D01*
X19024819Y-40309523D02*
X19405771Y-39976190D01*
X19405771Y-39976190D02*
X19405771Y-40119047D01*
X19405771Y-40119047D02*
X19453390Y-40214285D01*
X19453390Y-40214285D02*
X19501009Y-40261904D01*
X19501009Y-40261904D02*
X19596247Y-40309523D01*
X19596247Y-40309523D02*
X19834342Y-40309523D01*
X19834342Y-40309523D02*
X19929580Y-40261904D01*
X19929580Y-40261904D02*
X19977200Y-40214285D01*
X19977200Y-40214285D02*
X20024819Y-40119047D01*
X20024819Y-40119047D02*
X20024819Y-39833333D01*
X20024819Y-39833333D02*
X19977200Y-39738095D01*
X19977200Y-39738095D02*
X19929580Y-39690476D01*
X19024819Y-40642857D02*
X19024819Y-41309523D01*
X19024819Y-41309523D02*
X20024819Y-40880952D01*
X43384819Y-7444642D02*
X42908628Y-7111309D01*
X43384819Y-6873214D02*
X42384819Y-6873214D01*
X42384819Y-6873214D02*
X42384819Y-7254166D01*
X42384819Y-7254166D02*
X42432438Y-7349404D01*
X42432438Y-7349404D02*
X42480057Y-7397023D01*
X42480057Y-7397023D02*
X42575295Y-7444642D01*
X42575295Y-7444642D02*
X42718152Y-7444642D01*
X42718152Y-7444642D02*
X42813390Y-7397023D01*
X42813390Y-7397023D02*
X42861009Y-7349404D01*
X42861009Y-7349404D02*
X42908628Y-7254166D01*
X42908628Y-7254166D02*
X42908628Y-6873214D01*
X42480057Y-7825595D02*
X42432438Y-7873214D01*
X42432438Y-7873214D02*
X42384819Y-7968452D01*
X42384819Y-7968452D02*
X42384819Y-8206547D01*
X42384819Y-8206547D02*
X42432438Y-8301785D01*
X42432438Y-8301785D02*
X42480057Y-8349404D01*
X42480057Y-8349404D02*
X42575295Y-8397023D01*
X42575295Y-8397023D02*
X42670533Y-8397023D01*
X42670533Y-8397023D02*
X42813390Y-8349404D01*
X42813390Y-8349404D02*
X43384819Y-7777976D01*
X43384819Y-7777976D02*
X43384819Y-8397023D01*
X43384819Y-8873214D02*
X43384819Y-9063690D01*
X43384819Y-9063690D02*
X43337200Y-9158928D01*
X43337200Y-9158928D02*
X43289580Y-9206547D01*
X43289580Y-9206547D02*
X43146723Y-9301785D01*
X43146723Y-9301785D02*
X42956247Y-9349404D01*
X42956247Y-9349404D02*
X42575295Y-9349404D01*
X42575295Y-9349404D02*
X42480057Y-9301785D01*
X42480057Y-9301785D02*
X42432438Y-9254166D01*
X42432438Y-9254166D02*
X42384819Y-9158928D01*
X42384819Y-9158928D02*
X42384819Y-8968452D01*
X42384819Y-8968452D02*
X42432438Y-8873214D01*
X42432438Y-8873214D02*
X42480057Y-8825595D01*
X42480057Y-8825595D02*
X42575295Y-8777976D01*
X42575295Y-8777976D02*
X42813390Y-8777976D01*
X42813390Y-8777976D02*
X42908628Y-8825595D01*
X42908628Y-8825595D02*
X42956247Y-8873214D01*
X42956247Y-8873214D02*
X43003866Y-8968452D01*
X43003866Y-8968452D02*
X43003866Y-9158928D01*
X43003866Y-9158928D02*
X42956247Y-9254166D01*
X42956247Y-9254166D02*
X42908628Y-9301785D01*
X42908628Y-9301785D02*
X42813390Y-9349404D01*
X50429166Y-34774819D02*
X50762499Y-34298628D01*
X51000594Y-34774819D02*
X51000594Y-33774819D01*
X51000594Y-33774819D02*
X50619642Y-33774819D01*
X50619642Y-33774819D02*
X50524404Y-33822438D01*
X50524404Y-33822438D02*
X50476785Y-33870057D01*
X50476785Y-33870057D02*
X50429166Y-33965295D01*
X50429166Y-33965295D02*
X50429166Y-34108152D01*
X50429166Y-34108152D02*
X50476785Y-34203390D01*
X50476785Y-34203390D02*
X50524404Y-34251009D01*
X50524404Y-34251009D02*
X50619642Y-34298628D01*
X50619642Y-34298628D02*
X51000594Y-34298628D01*
X50095832Y-33774819D02*
X49429166Y-33774819D01*
X49429166Y-33774819D02*
X49857737Y-34774819D01*
X46134819Y-7444642D02*
X45658628Y-7111309D01*
X46134819Y-6873214D02*
X45134819Y-6873214D01*
X45134819Y-6873214D02*
X45134819Y-7254166D01*
X45134819Y-7254166D02*
X45182438Y-7349404D01*
X45182438Y-7349404D02*
X45230057Y-7397023D01*
X45230057Y-7397023D02*
X45325295Y-7444642D01*
X45325295Y-7444642D02*
X45468152Y-7444642D01*
X45468152Y-7444642D02*
X45563390Y-7397023D01*
X45563390Y-7397023D02*
X45611009Y-7349404D01*
X45611009Y-7349404D02*
X45658628Y-7254166D01*
X45658628Y-7254166D02*
X45658628Y-6873214D01*
X45134819Y-7777976D02*
X45134819Y-8397023D01*
X45134819Y-8397023D02*
X45515771Y-8063690D01*
X45515771Y-8063690D02*
X45515771Y-8206547D01*
X45515771Y-8206547D02*
X45563390Y-8301785D01*
X45563390Y-8301785D02*
X45611009Y-8349404D01*
X45611009Y-8349404D02*
X45706247Y-8397023D01*
X45706247Y-8397023D02*
X45944342Y-8397023D01*
X45944342Y-8397023D02*
X46039580Y-8349404D01*
X46039580Y-8349404D02*
X46087200Y-8301785D01*
X46087200Y-8301785D02*
X46134819Y-8206547D01*
X46134819Y-8206547D02*
X46134819Y-7920833D01*
X46134819Y-7920833D02*
X46087200Y-7825595D01*
X46087200Y-7825595D02*
X46039580Y-7777976D01*
X45134819Y-8730357D02*
X45134819Y-9349404D01*
X45134819Y-9349404D02*
X45515771Y-9016071D01*
X45515771Y-9016071D02*
X45515771Y-9158928D01*
X45515771Y-9158928D02*
X45563390Y-9254166D01*
X45563390Y-9254166D02*
X45611009Y-9301785D01*
X45611009Y-9301785D02*
X45706247Y-9349404D01*
X45706247Y-9349404D02*
X45944342Y-9349404D01*
X45944342Y-9349404D02*
X46039580Y-9301785D01*
X46039580Y-9301785D02*
X46087200Y-9254166D01*
X46087200Y-9254166D02*
X46134819Y-9158928D01*
X46134819Y-9158928D02*
X46134819Y-8873214D01*
X46134819Y-8873214D02*
X46087200Y-8777976D01*
X46087200Y-8777976D02*
X46039580Y-8730357D01*
X26024819Y-39357142D02*
X25548628Y-39023809D01*
X26024819Y-38785714D02*
X25024819Y-38785714D01*
X25024819Y-38785714D02*
X25024819Y-39166666D01*
X25024819Y-39166666D02*
X25072438Y-39261904D01*
X25072438Y-39261904D02*
X25120057Y-39309523D01*
X25120057Y-39309523D02*
X25215295Y-39357142D01*
X25215295Y-39357142D02*
X25358152Y-39357142D01*
X25358152Y-39357142D02*
X25453390Y-39309523D01*
X25453390Y-39309523D02*
X25501009Y-39261904D01*
X25501009Y-39261904D02*
X25548628Y-39166666D01*
X25548628Y-39166666D02*
X25548628Y-38785714D01*
X25024819Y-39690476D02*
X25024819Y-40309523D01*
X25024819Y-40309523D02*
X25405771Y-39976190D01*
X25405771Y-39976190D02*
X25405771Y-40119047D01*
X25405771Y-40119047D02*
X25453390Y-40214285D01*
X25453390Y-40214285D02*
X25501009Y-40261904D01*
X25501009Y-40261904D02*
X25596247Y-40309523D01*
X25596247Y-40309523D02*
X25834342Y-40309523D01*
X25834342Y-40309523D02*
X25929580Y-40261904D01*
X25929580Y-40261904D02*
X25977200Y-40214285D01*
X25977200Y-40214285D02*
X26024819Y-40119047D01*
X26024819Y-40119047D02*
X26024819Y-39833333D01*
X26024819Y-39833333D02*
X25977200Y-39738095D01*
X25977200Y-39738095D02*
X25929580Y-39690476D01*
X25024819Y-41166666D02*
X25024819Y-40976190D01*
X25024819Y-40976190D02*
X25072438Y-40880952D01*
X25072438Y-40880952D02*
X25120057Y-40833333D01*
X25120057Y-40833333D02*
X25262914Y-40738095D01*
X25262914Y-40738095D02*
X25453390Y-40690476D01*
X25453390Y-40690476D02*
X25834342Y-40690476D01*
X25834342Y-40690476D02*
X25929580Y-40738095D01*
X25929580Y-40738095D02*
X25977200Y-40785714D01*
X25977200Y-40785714D02*
X26024819Y-40880952D01*
X26024819Y-40880952D02*
X26024819Y-41071428D01*
X26024819Y-41071428D02*
X25977200Y-41166666D01*
X25977200Y-41166666D02*
X25929580Y-41214285D01*
X25929580Y-41214285D02*
X25834342Y-41261904D01*
X25834342Y-41261904D02*
X25596247Y-41261904D01*
X25596247Y-41261904D02*
X25501009Y-41214285D01*
X25501009Y-41214285D02*
X25453390Y-41166666D01*
X25453390Y-41166666D02*
X25405771Y-41071428D01*
X25405771Y-41071428D02*
X25405771Y-40880952D01*
X25405771Y-40880952D02*
X25453390Y-40785714D01*
X25453390Y-40785714D02*
X25501009Y-40738095D01*
X25501009Y-40738095D02*
X25596247Y-40690476D01*
X50329166Y-26274819D02*
X50662499Y-25798628D01*
X50900594Y-26274819D02*
X50900594Y-25274819D01*
X50900594Y-25274819D02*
X50519642Y-25274819D01*
X50519642Y-25274819D02*
X50424404Y-25322438D01*
X50424404Y-25322438D02*
X50376785Y-25370057D01*
X50376785Y-25370057D02*
X50329166Y-25465295D01*
X50329166Y-25465295D02*
X50329166Y-25608152D01*
X50329166Y-25608152D02*
X50376785Y-25703390D01*
X50376785Y-25703390D02*
X50424404Y-25751009D01*
X50424404Y-25751009D02*
X50519642Y-25798628D01*
X50519642Y-25798628D02*
X50900594Y-25798628D01*
X49424404Y-25274819D02*
X49900594Y-25274819D01*
X49900594Y-25274819D02*
X49948213Y-25751009D01*
X49948213Y-25751009D02*
X49900594Y-25703390D01*
X49900594Y-25703390D02*
X49805356Y-25655771D01*
X49805356Y-25655771D02*
X49567261Y-25655771D01*
X49567261Y-25655771D02*
X49472023Y-25703390D01*
X49472023Y-25703390D02*
X49424404Y-25751009D01*
X49424404Y-25751009D02*
X49376785Y-25846247D01*
X49376785Y-25846247D02*
X49376785Y-26084342D01*
X49376785Y-26084342D02*
X49424404Y-26179580D01*
X49424404Y-26179580D02*
X49472023Y-26227200D01*
X49472023Y-26227200D02*
X49567261Y-26274819D01*
X49567261Y-26274819D02*
X49805356Y-26274819D01*
X49805356Y-26274819D02*
X49900594Y-26227200D01*
X49900594Y-26227200D02*
X49948213Y-26179580D01*
X50329166Y-20524819D02*
X50662499Y-20048628D01*
X50900594Y-20524819D02*
X50900594Y-19524819D01*
X50900594Y-19524819D02*
X50519642Y-19524819D01*
X50519642Y-19524819D02*
X50424404Y-19572438D01*
X50424404Y-19572438D02*
X50376785Y-19620057D01*
X50376785Y-19620057D02*
X50329166Y-19715295D01*
X50329166Y-19715295D02*
X50329166Y-19858152D01*
X50329166Y-19858152D02*
X50376785Y-19953390D01*
X50376785Y-19953390D02*
X50424404Y-20001009D01*
X50424404Y-20001009D02*
X50519642Y-20048628D01*
X50519642Y-20048628D02*
X50900594Y-20048628D01*
X49472023Y-19524819D02*
X49662499Y-19524819D01*
X49662499Y-19524819D02*
X49757737Y-19572438D01*
X49757737Y-19572438D02*
X49805356Y-19620057D01*
X49805356Y-19620057D02*
X49900594Y-19762914D01*
X49900594Y-19762914D02*
X49948213Y-19953390D01*
X49948213Y-19953390D02*
X49948213Y-20334342D01*
X49948213Y-20334342D02*
X49900594Y-20429580D01*
X49900594Y-20429580D02*
X49852975Y-20477200D01*
X49852975Y-20477200D02*
X49757737Y-20524819D01*
X49757737Y-20524819D02*
X49567261Y-20524819D01*
X49567261Y-20524819D02*
X49472023Y-20477200D01*
X49472023Y-20477200D02*
X49424404Y-20429580D01*
X49424404Y-20429580D02*
X49376785Y-20334342D01*
X49376785Y-20334342D02*
X49376785Y-20096247D01*
X49376785Y-20096247D02*
X49424404Y-20001009D01*
X49424404Y-20001009D02*
X49472023Y-19953390D01*
X49472023Y-19953390D02*
X49567261Y-19905771D01*
X49567261Y-19905771D02*
X49757737Y-19905771D01*
X49757737Y-19905771D02*
X49852975Y-19953390D01*
X49852975Y-19953390D02*
X49900594Y-20001009D01*
X49900594Y-20001009D02*
X49948213Y-20096247D01*
X32024819Y-39357142D02*
X31548628Y-39023809D01*
X32024819Y-38785714D02*
X31024819Y-38785714D01*
X31024819Y-38785714D02*
X31024819Y-39166666D01*
X31024819Y-39166666D02*
X31072438Y-39261904D01*
X31072438Y-39261904D02*
X31120057Y-39309523D01*
X31120057Y-39309523D02*
X31215295Y-39357142D01*
X31215295Y-39357142D02*
X31358152Y-39357142D01*
X31358152Y-39357142D02*
X31453390Y-39309523D01*
X31453390Y-39309523D02*
X31501009Y-39261904D01*
X31501009Y-39261904D02*
X31548628Y-39166666D01*
X31548628Y-39166666D02*
X31548628Y-38785714D01*
X31024819Y-39690476D02*
X31024819Y-40309523D01*
X31024819Y-40309523D02*
X31405771Y-39976190D01*
X31405771Y-39976190D02*
X31405771Y-40119047D01*
X31405771Y-40119047D02*
X31453390Y-40214285D01*
X31453390Y-40214285D02*
X31501009Y-40261904D01*
X31501009Y-40261904D02*
X31596247Y-40309523D01*
X31596247Y-40309523D02*
X31834342Y-40309523D01*
X31834342Y-40309523D02*
X31929580Y-40261904D01*
X31929580Y-40261904D02*
X31977200Y-40214285D01*
X31977200Y-40214285D02*
X32024819Y-40119047D01*
X32024819Y-40119047D02*
X32024819Y-39833333D01*
X32024819Y-39833333D02*
X31977200Y-39738095D01*
X31977200Y-39738095D02*
X31929580Y-39690476D01*
X31024819Y-41214285D02*
X31024819Y-40738095D01*
X31024819Y-40738095D02*
X31501009Y-40690476D01*
X31501009Y-40690476D02*
X31453390Y-40738095D01*
X31453390Y-40738095D02*
X31405771Y-40833333D01*
X31405771Y-40833333D02*
X31405771Y-41071428D01*
X31405771Y-41071428D02*
X31453390Y-41166666D01*
X31453390Y-41166666D02*
X31501009Y-41214285D01*
X31501009Y-41214285D02*
X31596247Y-41261904D01*
X31596247Y-41261904D02*
X31834342Y-41261904D01*
X31834342Y-41261904D02*
X31929580Y-41214285D01*
X31929580Y-41214285D02*
X31977200Y-41166666D01*
X31977200Y-41166666D02*
X32024819Y-41071428D01*
X32024819Y-41071428D02*
X32024819Y-40833333D01*
X32024819Y-40833333D02*
X31977200Y-40738095D01*
X31977200Y-40738095D02*
X31929580Y-40690476D01*
X48484819Y-13829166D02*
X49199104Y-13829166D01*
X49199104Y-13829166D02*
X49341961Y-13781547D01*
X49341961Y-13781547D02*
X49437200Y-13686309D01*
X49437200Y-13686309D02*
X49484819Y-13543452D01*
X49484819Y-13543452D02*
X49484819Y-13448214D01*
X49484819Y-14305357D02*
X48484819Y-14305357D01*
X48484819Y-14305357D02*
X48484819Y-14686309D01*
X48484819Y-14686309D02*
X48532438Y-14781547D01*
X48532438Y-14781547D02*
X48580057Y-14829166D01*
X48580057Y-14829166D02*
X48675295Y-14876785D01*
X48675295Y-14876785D02*
X48818152Y-14876785D01*
X48818152Y-14876785D02*
X48913390Y-14829166D01*
X48913390Y-14829166D02*
X48961009Y-14781547D01*
X48961009Y-14781547D02*
X49008628Y-14686309D01*
X49008628Y-14686309D02*
X49008628Y-14305357D01*
X48580057Y-15257738D02*
X48532438Y-15305357D01*
X48532438Y-15305357D02*
X48484819Y-15400595D01*
X48484819Y-15400595D02*
X48484819Y-15638690D01*
X48484819Y-15638690D02*
X48532438Y-15733928D01*
X48532438Y-15733928D02*
X48580057Y-15781547D01*
X48580057Y-15781547D02*
X48675295Y-15829166D01*
X48675295Y-15829166D02*
X48770533Y-15829166D01*
X48770533Y-15829166D02*
X48913390Y-15781547D01*
X48913390Y-15781547D02*
X49484819Y-15210119D01*
X49484819Y-15210119D02*
X49484819Y-15829166D01*
X45484819Y-13916666D02*
X46199104Y-13916666D01*
X46199104Y-13916666D02*
X46341961Y-13869047D01*
X46341961Y-13869047D02*
X46437200Y-13773809D01*
X46437200Y-13773809D02*
X46484819Y-13630952D01*
X46484819Y-13630952D02*
X46484819Y-13535714D01*
X46484819Y-14392857D02*
X45484819Y-14392857D01*
X45484819Y-14392857D02*
X45484819Y-14773809D01*
X45484819Y-14773809D02*
X45532438Y-14869047D01*
X45532438Y-14869047D02*
X45580057Y-14916666D01*
X45580057Y-14916666D02*
X45675295Y-14964285D01*
X45675295Y-14964285D02*
X45818152Y-14964285D01*
X45818152Y-14964285D02*
X45913390Y-14916666D01*
X45913390Y-14916666D02*
X45961009Y-14869047D01*
X45961009Y-14869047D02*
X46008628Y-14773809D01*
X46008628Y-14773809D02*
X46008628Y-14392857D01*
X45484819Y-15297619D02*
X45484819Y-15916666D01*
X45484819Y-15916666D02*
X45865771Y-15583333D01*
X45865771Y-15583333D02*
X45865771Y-15726190D01*
X45865771Y-15726190D02*
X45913390Y-15821428D01*
X45913390Y-15821428D02*
X45961009Y-15869047D01*
X45961009Y-15869047D02*
X46056247Y-15916666D01*
X46056247Y-15916666D02*
X46294342Y-15916666D01*
X46294342Y-15916666D02*
X46389580Y-15869047D01*
X46389580Y-15869047D02*
X46437200Y-15821428D01*
X46437200Y-15821428D02*
X46484819Y-15726190D01*
X46484819Y-15726190D02*
X46484819Y-15440476D01*
X46484819Y-15440476D02*
X46437200Y-15345238D01*
X46437200Y-15345238D02*
X46389580Y-15297619D01*
X22674819Y-32329166D02*
X23389104Y-32329166D01*
X23389104Y-32329166D02*
X23531961Y-32281547D01*
X23531961Y-32281547D02*
X23627200Y-32186309D01*
X23627200Y-32186309D02*
X23674819Y-32043452D01*
X23674819Y-32043452D02*
X23674819Y-31948214D01*
X23674819Y-32805357D02*
X22674819Y-32805357D01*
X22674819Y-32805357D02*
X22674819Y-33186309D01*
X22674819Y-33186309D02*
X22722438Y-33281547D01*
X22722438Y-33281547D02*
X22770057Y-33329166D01*
X22770057Y-33329166D02*
X22865295Y-33376785D01*
X22865295Y-33376785D02*
X23008152Y-33376785D01*
X23008152Y-33376785D02*
X23103390Y-33329166D01*
X23103390Y-33329166D02*
X23151009Y-33281547D01*
X23151009Y-33281547D02*
X23198628Y-33186309D01*
X23198628Y-33186309D02*
X23198628Y-32805357D01*
X23674819Y-33852976D02*
X23674819Y-34043452D01*
X23674819Y-34043452D02*
X23627200Y-34138690D01*
X23627200Y-34138690D02*
X23579580Y-34186309D01*
X23579580Y-34186309D02*
X23436723Y-34281547D01*
X23436723Y-34281547D02*
X23246247Y-34329166D01*
X23246247Y-34329166D02*
X22865295Y-34329166D01*
X22865295Y-34329166D02*
X22770057Y-34281547D01*
X22770057Y-34281547D02*
X22722438Y-34233928D01*
X22722438Y-34233928D02*
X22674819Y-34138690D01*
X22674819Y-34138690D02*
X22674819Y-33948214D01*
X22674819Y-33948214D02*
X22722438Y-33852976D01*
X22722438Y-33852976D02*
X22770057Y-33805357D01*
X22770057Y-33805357D02*
X22865295Y-33757738D01*
X22865295Y-33757738D02*
X23103390Y-33757738D01*
X23103390Y-33757738D02*
X23198628Y-33805357D01*
X23198628Y-33805357D02*
X23246247Y-33852976D01*
X23246247Y-33852976D02*
X23293866Y-33948214D01*
X23293866Y-33948214D02*
X23293866Y-34138690D01*
X23293866Y-34138690D02*
X23246247Y-34233928D01*
X23246247Y-34233928D02*
X23198628Y-34281547D01*
X23198628Y-34281547D02*
X23103390Y-34329166D01*
X28754819Y-31827976D02*
X29469104Y-31827976D01*
X29469104Y-31827976D02*
X29611961Y-31780357D01*
X29611961Y-31780357D02*
X29707200Y-31685119D01*
X29707200Y-31685119D02*
X29754819Y-31542262D01*
X29754819Y-31542262D02*
X29754819Y-31447024D01*
X29754819Y-32304167D02*
X28754819Y-32304167D01*
X28754819Y-32304167D02*
X28754819Y-32685119D01*
X28754819Y-32685119D02*
X28802438Y-32780357D01*
X28802438Y-32780357D02*
X28850057Y-32827976D01*
X28850057Y-32827976D02*
X28945295Y-32875595D01*
X28945295Y-32875595D02*
X29088152Y-32875595D01*
X29088152Y-32875595D02*
X29183390Y-32827976D01*
X29183390Y-32827976D02*
X29231009Y-32780357D01*
X29231009Y-32780357D02*
X29278628Y-32685119D01*
X29278628Y-32685119D02*
X29278628Y-32304167D01*
X29754819Y-33827976D02*
X29754819Y-33256548D01*
X29754819Y-33542262D02*
X28754819Y-33542262D01*
X28754819Y-33542262D02*
X28897676Y-33447024D01*
X28897676Y-33447024D02*
X28992914Y-33351786D01*
X28992914Y-33351786D02*
X29040533Y-33256548D01*
X29754819Y-34780357D02*
X29754819Y-34208929D01*
X29754819Y-34494643D02*
X28754819Y-34494643D01*
X28754819Y-34494643D02*
X28897676Y-34399405D01*
X28897676Y-34399405D02*
X28992914Y-34304167D01*
X28992914Y-34304167D02*
X29040533Y-34208929D01*
X42484819Y-13929166D02*
X43199104Y-13929166D01*
X43199104Y-13929166D02*
X43341961Y-13881547D01*
X43341961Y-13881547D02*
X43437200Y-13786309D01*
X43437200Y-13786309D02*
X43484819Y-13643452D01*
X43484819Y-13643452D02*
X43484819Y-13548214D01*
X43484819Y-14405357D02*
X42484819Y-14405357D01*
X42484819Y-14405357D02*
X42484819Y-14786309D01*
X42484819Y-14786309D02*
X42532438Y-14881547D01*
X42532438Y-14881547D02*
X42580057Y-14929166D01*
X42580057Y-14929166D02*
X42675295Y-14976785D01*
X42675295Y-14976785D02*
X42818152Y-14976785D01*
X42818152Y-14976785D02*
X42913390Y-14929166D01*
X42913390Y-14929166D02*
X42961009Y-14881547D01*
X42961009Y-14881547D02*
X43008628Y-14786309D01*
X43008628Y-14786309D02*
X43008628Y-14405357D01*
X42818152Y-15833928D02*
X43484819Y-15833928D01*
X42437200Y-15595833D02*
X43151485Y-15357738D01*
X43151485Y-15357738D02*
X43151485Y-15976785D01*
X31654819Y-31840476D02*
X32369104Y-31840476D01*
X32369104Y-31840476D02*
X32511961Y-31792857D01*
X32511961Y-31792857D02*
X32607200Y-31697619D01*
X32607200Y-31697619D02*
X32654819Y-31554762D01*
X32654819Y-31554762D02*
X32654819Y-31459524D01*
X32654819Y-32316667D02*
X31654819Y-32316667D01*
X31654819Y-32316667D02*
X31654819Y-32697619D01*
X31654819Y-32697619D02*
X31702438Y-32792857D01*
X31702438Y-32792857D02*
X31750057Y-32840476D01*
X31750057Y-32840476D02*
X31845295Y-32888095D01*
X31845295Y-32888095D02*
X31988152Y-32888095D01*
X31988152Y-32888095D02*
X32083390Y-32840476D01*
X32083390Y-32840476D02*
X32131009Y-32792857D01*
X32131009Y-32792857D02*
X32178628Y-32697619D01*
X32178628Y-32697619D02*
X32178628Y-32316667D01*
X32654819Y-33840476D02*
X32654819Y-33269048D01*
X32654819Y-33554762D02*
X31654819Y-33554762D01*
X31654819Y-33554762D02*
X31797676Y-33459524D01*
X31797676Y-33459524D02*
X31892914Y-33364286D01*
X31892914Y-33364286D02*
X31940533Y-33269048D01*
X31750057Y-34221429D02*
X31702438Y-34269048D01*
X31702438Y-34269048D02*
X31654819Y-34364286D01*
X31654819Y-34364286D02*
X31654819Y-34602381D01*
X31654819Y-34602381D02*
X31702438Y-34697619D01*
X31702438Y-34697619D02*
X31750057Y-34745238D01*
X31750057Y-34745238D02*
X31845295Y-34792857D01*
X31845295Y-34792857D02*
X31940533Y-34792857D01*
X31940533Y-34792857D02*
X32083390Y-34745238D01*
X32083390Y-34745238D02*
X32654819Y-34173810D01*
X32654819Y-34173810D02*
X32654819Y-34792857D01*
X51384819Y-13666666D02*
X52099104Y-13666666D01*
X52099104Y-13666666D02*
X52241961Y-13619047D01*
X52241961Y-13619047D02*
X52337200Y-13523809D01*
X52337200Y-13523809D02*
X52384819Y-13380952D01*
X52384819Y-13380952D02*
X52384819Y-13285714D01*
X52384819Y-14142857D02*
X51384819Y-14142857D01*
X51384819Y-14142857D02*
X51384819Y-14523809D01*
X51384819Y-14523809D02*
X51432438Y-14619047D01*
X51432438Y-14619047D02*
X51480057Y-14666666D01*
X51480057Y-14666666D02*
X51575295Y-14714285D01*
X51575295Y-14714285D02*
X51718152Y-14714285D01*
X51718152Y-14714285D02*
X51813390Y-14666666D01*
X51813390Y-14666666D02*
X51861009Y-14619047D01*
X51861009Y-14619047D02*
X51908628Y-14523809D01*
X51908628Y-14523809D02*
X51908628Y-14142857D01*
X52384819Y-15666666D02*
X52384819Y-15095238D01*
X52384819Y-15380952D02*
X51384819Y-15380952D01*
X51384819Y-15380952D02*
X51527676Y-15285714D01*
X51527676Y-15285714D02*
X51622914Y-15190476D01*
X51622914Y-15190476D02*
X51670533Y-15095238D01*
X16774819Y-32329166D02*
X17489104Y-32329166D01*
X17489104Y-32329166D02*
X17631961Y-32281547D01*
X17631961Y-32281547D02*
X17727200Y-32186309D01*
X17727200Y-32186309D02*
X17774819Y-32043452D01*
X17774819Y-32043452D02*
X17774819Y-31948214D01*
X17774819Y-32805357D02*
X16774819Y-32805357D01*
X16774819Y-32805357D02*
X16774819Y-33186309D01*
X16774819Y-33186309D02*
X16822438Y-33281547D01*
X16822438Y-33281547D02*
X16870057Y-33329166D01*
X16870057Y-33329166D02*
X16965295Y-33376785D01*
X16965295Y-33376785D02*
X17108152Y-33376785D01*
X17108152Y-33376785D02*
X17203390Y-33329166D01*
X17203390Y-33329166D02*
X17251009Y-33281547D01*
X17251009Y-33281547D02*
X17298628Y-33186309D01*
X17298628Y-33186309D02*
X17298628Y-32805357D01*
X16774819Y-33710119D02*
X16774819Y-34376785D01*
X16774819Y-34376785D02*
X17774819Y-33948214D01*
X25854819Y-31852976D02*
X26569104Y-31852976D01*
X26569104Y-31852976D02*
X26711961Y-31805357D01*
X26711961Y-31805357D02*
X26807200Y-31710119D01*
X26807200Y-31710119D02*
X26854819Y-31567262D01*
X26854819Y-31567262D02*
X26854819Y-31472024D01*
X26854819Y-32329167D02*
X25854819Y-32329167D01*
X25854819Y-32329167D02*
X25854819Y-32710119D01*
X25854819Y-32710119D02*
X25902438Y-32805357D01*
X25902438Y-32805357D02*
X25950057Y-32852976D01*
X25950057Y-32852976D02*
X26045295Y-32900595D01*
X26045295Y-32900595D02*
X26188152Y-32900595D01*
X26188152Y-32900595D02*
X26283390Y-32852976D01*
X26283390Y-32852976D02*
X26331009Y-32805357D01*
X26331009Y-32805357D02*
X26378628Y-32710119D01*
X26378628Y-32710119D02*
X26378628Y-32329167D01*
X26854819Y-33852976D02*
X26854819Y-33281548D01*
X26854819Y-33567262D02*
X25854819Y-33567262D01*
X25854819Y-33567262D02*
X25997676Y-33472024D01*
X25997676Y-33472024D02*
X26092914Y-33376786D01*
X26092914Y-33376786D02*
X26140533Y-33281548D01*
X25854819Y-34472024D02*
X25854819Y-34567262D01*
X25854819Y-34567262D02*
X25902438Y-34662500D01*
X25902438Y-34662500D02*
X25950057Y-34710119D01*
X25950057Y-34710119D02*
X26045295Y-34757738D01*
X26045295Y-34757738D02*
X26235771Y-34805357D01*
X26235771Y-34805357D02*
X26473866Y-34805357D01*
X26473866Y-34805357D02*
X26664342Y-34757738D01*
X26664342Y-34757738D02*
X26759580Y-34710119D01*
X26759580Y-34710119D02*
X26807200Y-34662500D01*
X26807200Y-34662500D02*
X26854819Y-34567262D01*
X26854819Y-34567262D02*
X26854819Y-34472024D01*
X26854819Y-34472024D02*
X26807200Y-34376786D01*
X26807200Y-34376786D02*
X26759580Y-34329167D01*
X26759580Y-34329167D02*
X26664342Y-34281548D01*
X26664342Y-34281548D02*
X26473866Y-34233929D01*
X26473866Y-34233929D02*
X26235771Y-34233929D01*
X26235771Y-34233929D02*
X26045295Y-34281548D01*
X26045295Y-34281548D02*
X25950057Y-34329167D01*
X25950057Y-34329167D02*
X25902438Y-34376786D01*
X25902438Y-34376786D02*
X25854819Y-34472024D01*
X19674819Y-32329166D02*
X20389104Y-32329166D01*
X20389104Y-32329166D02*
X20531961Y-32281547D01*
X20531961Y-32281547D02*
X20627200Y-32186309D01*
X20627200Y-32186309D02*
X20674819Y-32043452D01*
X20674819Y-32043452D02*
X20674819Y-31948214D01*
X20674819Y-32805357D02*
X19674819Y-32805357D01*
X19674819Y-32805357D02*
X19674819Y-33186309D01*
X19674819Y-33186309D02*
X19722438Y-33281547D01*
X19722438Y-33281547D02*
X19770057Y-33329166D01*
X19770057Y-33329166D02*
X19865295Y-33376785D01*
X19865295Y-33376785D02*
X20008152Y-33376785D01*
X20008152Y-33376785D02*
X20103390Y-33329166D01*
X20103390Y-33329166D02*
X20151009Y-33281547D01*
X20151009Y-33281547D02*
X20198628Y-33186309D01*
X20198628Y-33186309D02*
X20198628Y-32805357D01*
X20103390Y-33948214D02*
X20055771Y-33852976D01*
X20055771Y-33852976D02*
X20008152Y-33805357D01*
X20008152Y-33805357D02*
X19912914Y-33757738D01*
X19912914Y-33757738D02*
X19865295Y-33757738D01*
X19865295Y-33757738D02*
X19770057Y-33805357D01*
X19770057Y-33805357D02*
X19722438Y-33852976D01*
X19722438Y-33852976D02*
X19674819Y-33948214D01*
X19674819Y-33948214D02*
X19674819Y-34138690D01*
X19674819Y-34138690D02*
X19722438Y-34233928D01*
X19722438Y-34233928D02*
X19770057Y-34281547D01*
X19770057Y-34281547D02*
X19865295Y-34329166D01*
X19865295Y-34329166D02*
X19912914Y-34329166D01*
X19912914Y-34329166D02*
X20008152Y-34281547D01*
X20008152Y-34281547D02*
X20055771Y-34233928D01*
X20055771Y-34233928D02*
X20103390Y-34138690D01*
X20103390Y-34138690D02*
X20103390Y-33948214D01*
X20103390Y-33948214D02*
X20151009Y-33852976D01*
X20151009Y-33852976D02*
X20198628Y-33805357D01*
X20198628Y-33805357D02*
X20293866Y-33757738D01*
X20293866Y-33757738D02*
X20484342Y-33757738D01*
X20484342Y-33757738D02*
X20579580Y-33805357D01*
X20579580Y-33805357D02*
X20627200Y-33852976D01*
X20627200Y-33852976D02*
X20674819Y-33948214D01*
X20674819Y-33948214D02*
X20674819Y-34138690D01*
X20674819Y-34138690D02*
X20627200Y-34233928D01*
X20627200Y-34233928D02*
X20579580Y-34281547D01*
X20579580Y-34281547D02*
X20484342Y-34329166D01*
X20484342Y-34329166D02*
X20293866Y-34329166D01*
X20293866Y-34329166D02*
X20198628Y-34281547D01*
X20198628Y-34281547D02*
X20151009Y-34233928D01*
X20151009Y-34233928D02*
X20103390Y-34138690D01*
X36484819Y-13916666D02*
X37199104Y-13916666D01*
X37199104Y-13916666D02*
X37341961Y-13869047D01*
X37341961Y-13869047D02*
X37437200Y-13773809D01*
X37437200Y-13773809D02*
X37484819Y-13630952D01*
X37484819Y-13630952D02*
X37484819Y-13535714D01*
X37484819Y-14392857D02*
X36484819Y-14392857D01*
X36484819Y-14392857D02*
X36484819Y-14773809D01*
X36484819Y-14773809D02*
X36532438Y-14869047D01*
X36532438Y-14869047D02*
X36580057Y-14916666D01*
X36580057Y-14916666D02*
X36675295Y-14964285D01*
X36675295Y-14964285D02*
X36818152Y-14964285D01*
X36818152Y-14964285D02*
X36913390Y-14916666D01*
X36913390Y-14916666D02*
X36961009Y-14869047D01*
X36961009Y-14869047D02*
X37008628Y-14773809D01*
X37008628Y-14773809D02*
X37008628Y-14392857D01*
X36484819Y-15821428D02*
X36484819Y-15630952D01*
X36484819Y-15630952D02*
X36532438Y-15535714D01*
X36532438Y-15535714D02*
X36580057Y-15488095D01*
X36580057Y-15488095D02*
X36722914Y-15392857D01*
X36722914Y-15392857D02*
X36913390Y-15345238D01*
X36913390Y-15345238D02*
X37294342Y-15345238D01*
X37294342Y-15345238D02*
X37389580Y-15392857D01*
X37389580Y-15392857D02*
X37437200Y-15440476D01*
X37437200Y-15440476D02*
X37484819Y-15535714D01*
X37484819Y-15535714D02*
X37484819Y-15726190D01*
X37484819Y-15726190D02*
X37437200Y-15821428D01*
X37437200Y-15821428D02*
X37389580Y-15869047D01*
X37389580Y-15869047D02*
X37294342Y-15916666D01*
X37294342Y-15916666D02*
X37056247Y-15916666D01*
X37056247Y-15916666D02*
X36961009Y-15869047D01*
X36961009Y-15869047D02*
X36913390Y-15821428D01*
X36913390Y-15821428D02*
X36865771Y-15726190D01*
X36865771Y-15726190D02*
X36865771Y-15535714D01*
X36865771Y-15535714D02*
X36913390Y-15440476D01*
X36913390Y-15440476D02*
X36961009Y-15392857D01*
X36961009Y-15392857D02*
X37056247Y-15345238D01*
X39484819Y-13929166D02*
X40199104Y-13929166D01*
X40199104Y-13929166D02*
X40341961Y-13881547D01*
X40341961Y-13881547D02*
X40437200Y-13786309D01*
X40437200Y-13786309D02*
X40484819Y-13643452D01*
X40484819Y-13643452D02*
X40484819Y-13548214D01*
X40484819Y-14405357D02*
X39484819Y-14405357D01*
X39484819Y-14405357D02*
X39484819Y-14786309D01*
X39484819Y-14786309D02*
X39532438Y-14881547D01*
X39532438Y-14881547D02*
X39580057Y-14929166D01*
X39580057Y-14929166D02*
X39675295Y-14976785D01*
X39675295Y-14976785D02*
X39818152Y-14976785D01*
X39818152Y-14976785D02*
X39913390Y-14929166D01*
X39913390Y-14929166D02*
X39961009Y-14881547D01*
X39961009Y-14881547D02*
X40008628Y-14786309D01*
X40008628Y-14786309D02*
X40008628Y-14405357D01*
X39484819Y-15881547D02*
X39484819Y-15405357D01*
X39484819Y-15405357D02*
X39961009Y-15357738D01*
X39961009Y-15357738D02*
X39913390Y-15405357D01*
X39913390Y-15405357D02*
X39865771Y-15500595D01*
X39865771Y-15500595D02*
X39865771Y-15738690D01*
X39865771Y-15738690D02*
X39913390Y-15833928D01*
X39913390Y-15833928D02*
X39961009Y-15881547D01*
X39961009Y-15881547D02*
X40056247Y-15929166D01*
X40056247Y-15929166D02*
X40294342Y-15929166D01*
X40294342Y-15929166D02*
X40389580Y-15881547D01*
X40389580Y-15881547D02*
X40437200Y-15833928D01*
X40437200Y-15833928D02*
X40484819Y-15738690D01*
X40484819Y-15738690D02*
X40484819Y-15500595D01*
X40484819Y-15500595D02*
X40437200Y-15405357D01*
X40437200Y-15405357D02*
X40389580Y-15357738D01*
D11*
%TO.C,R34*%
X50272500Y-7832776D02*
X50272500Y-8342224D01*
X49227500Y-7832776D02*
X49227500Y-8342224D01*
%TO.C,R31*%
X53022500Y-7832776D02*
X53022500Y-8342224D01*
X51977500Y-7832776D02*
X51977500Y-8342224D01*
%TO.C,R30*%
X47522500Y-7832776D02*
X47522500Y-8342224D01*
X46477500Y-7832776D02*
X46477500Y-8342224D01*
%TO.C,R38*%
X36522500Y-40254724D02*
X36522500Y-39745276D01*
X35477500Y-40254724D02*
X35477500Y-39745276D01*
%TO.C,R40*%
X24522500Y-40254724D02*
X24522500Y-39745276D01*
X23477500Y-40254724D02*
X23477500Y-39745276D01*
%TO.C,R39*%
X30522500Y-40254724D02*
X30522500Y-39745276D01*
X29477500Y-40254724D02*
X29477500Y-39745276D01*
%TO.C,R9*%
X49745276Y-25022500D02*
X50254724Y-25022500D01*
X49745276Y-23977500D02*
X50254724Y-23977500D01*
%TO.C,R32*%
X39022500Y-7907783D02*
X39022500Y-8417231D01*
X37977500Y-7907783D02*
X37977500Y-8417231D01*
%TO.C,R4*%
X49982776Y-32227500D02*
X50492224Y-32227500D01*
X49982776Y-33272500D02*
X50492224Y-33272500D01*
%TO.C,R8*%
X49907776Y-29477500D02*
X50417224Y-29477500D01*
X49907776Y-30522500D02*
X50417224Y-30522500D01*
%TO.C,R37*%
X20477500Y-40254724D02*
X20477500Y-39745276D01*
X21522500Y-40254724D02*
X21522500Y-39745276D01*
%TO.C,R29*%
X40977500Y-7832776D02*
X40977500Y-8342224D01*
X42022500Y-7832776D02*
X42022500Y-8342224D01*
%TO.C,R7*%
X50007776Y-35227500D02*
X50517224Y-35227500D01*
X50007776Y-36272500D02*
X50517224Y-36272500D01*
%TO.C,R33*%
X43727500Y-7832776D02*
X43727500Y-8342224D01*
X44772500Y-7832776D02*
X44772500Y-8342224D01*
%TO.C,R36*%
X26477500Y-40254724D02*
X26477500Y-39745276D01*
X27522500Y-40254724D02*
X27522500Y-39745276D01*
%TO.C,R5*%
X49907776Y-26727500D02*
X50417224Y-26727500D01*
X49907776Y-27772500D02*
X50417224Y-27772500D01*
%TO.C,R6*%
X49907776Y-22022500D02*
X50417224Y-22022500D01*
X49907776Y-20977500D02*
X50417224Y-20977500D01*
%TO.C,R35*%
X33522500Y-40254724D02*
X33522500Y-39745276D01*
X32477500Y-40254724D02*
X32477500Y-39745276D01*
%TO.C,JP2*%
X47077500Y-14407776D02*
X47077500Y-14917224D01*
X48122500Y-14407776D02*
X48122500Y-14917224D01*
%TO.C,JP3*%
X44077500Y-14495276D02*
X44077500Y-15004724D01*
X45122500Y-14495276D02*
X45122500Y-15004724D01*
%TO.C,JP9*%
X24127500Y-33417224D02*
X24127500Y-32907776D01*
X25172500Y-33417224D02*
X25172500Y-32907776D01*
%TO.C,JP11*%
X30207500Y-33392224D02*
X30207500Y-32882776D01*
X31252500Y-33392224D02*
X31252500Y-32882776D01*
%TO.C,JP4*%
X41077500Y-14507776D02*
X41077500Y-15017224D01*
X42122500Y-14507776D02*
X42122500Y-15017224D01*
%TO.C,JP12*%
X33107500Y-33404724D02*
X33107500Y-32895276D01*
X34152500Y-33404724D02*
X34152500Y-32895276D01*
%TO.C,JP1*%
X49977500Y-14245276D02*
X49977500Y-14754724D01*
X51022500Y-14245276D02*
X51022500Y-14754724D01*
%TO.C,JP7*%
X18227500Y-33417224D02*
X18227500Y-32907776D01*
X19272500Y-33417224D02*
X19272500Y-32907776D01*
%TO.C,JP10*%
X27307500Y-33417224D02*
X27307500Y-32907776D01*
X28352500Y-33417224D02*
X28352500Y-32907776D01*
%TO.C,JP8*%
X21127500Y-33417224D02*
X21127500Y-32907776D01*
X22172500Y-33417224D02*
X22172500Y-32907776D01*
%TO.C,JP6*%
X35077500Y-14495276D02*
X35077500Y-15004724D01*
X36122500Y-14495276D02*
X36122500Y-15004724D01*
%TO.C,JP5*%
X38077500Y-14507776D02*
X38077500Y-15017224D01*
X39122500Y-14507776D02*
X39122500Y-15017224D01*
%TD*%
M02*
