%TF.GenerationSoftware,KiCad,Pcbnew,8.0.6-8.0.6-0~ubuntu24.04.1*%
%TF.CreationDate,2024-11-11T20:35:34-05:00*%
%TF.ProjectId,Hexapod_bot,48657861-706f-4645-9f62-6f742e6b6963,rev?*%
%TF.SameCoordinates,Original*%
%TF.FileFunction,Copper,L4,Bot*%
%TF.FilePolarity,Positive*%
%FSLAX46Y46*%
G04 Gerber Fmt 4.6, Leading zero omitted, Abs format (unit mm)*
G04 Created by KiCad (PCBNEW 8.0.6-8.0.6-0~ubuntu24.04.1) date 2024-11-11 20:35:34*
%MOMM*%
%LPD*%
G01*
G04 APERTURE LIST*
G04 Aperture macros list*
%AMRoundRect*
0 Rectangle with rounded corners*
0 $1 Rounding radius*
0 $2 $3 $4 $5 $6 $7 $8 $9 X,Y pos of 4 corners*
0 Add a 4 corners polygon primitive as box body*
4,1,4,$2,$3,$4,$5,$6,$7,$8,$9,$2,$3,0*
0 Add four circle primitives for the rounded corners*
1,1,$1+$1,$2,$3*
1,1,$1+$1,$4,$5*
1,1,$1+$1,$6,$7*
1,1,$1+$1,$8,$9*
0 Add four rect primitives between the rounded corners*
20,1,$1+$1,$2,$3,$4,$5,0*
20,1,$1+$1,$4,$5,$6,$7,0*
20,1,$1+$1,$6,$7,$8,$9,0*
20,1,$1+$1,$8,$9,$2,$3,0*%
G04 Aperture macros list end*
%TA.AperFunction,SMDPad,CuDef*%
%ADD10RoundRect,0.237500X0.237500X-0.250000X0.237500X0.250000X-0.237500X0.250000X-0.237500X-0.250000X0*%
%TD*%
%TA.AperFunction,ComponentPad*%
%ADD11R,1.700000X1.700000*%
%TD*%
%TA.AperFunction,ComponentPad*%
%ADD12O,1.700000X1.700000*%
%TD*%
%TA.AperFunction,SMDPad,CuDef*%
%ADD13RoundRect,0.237500X-0.237500X0.250000X-0.237500X-0.250000X0.237500X-0.250000X0.237500X0.250000X0*%
%TD*%
%TA.AperFunction,SMDPad,CuDef*%
%ADD14RoundRect,0.237500X0.250000X0.237500X-0.250000X0.237500X-0.250000X-0.237500X0.250000X-0.237500X0*%
%TD*%
%TA.AperFunction,ComponentPad*%
%ADD15C,1.950000*%
%TD*%
%TA.AperFunction,ComponentPad*%
%ADD16C,2.900000*%
%TD*%
%TA.AperFunction,ConnectorPad*%
%ADD17C,5.000000*%
%TD*%
%TA.AperFunction,ViaPad*%
%ADD18C,0.800000*%
%TD*%
%TA.AperFunction,Conductor*%
%ADD19C,0.300000*%
%TD*%
%TA.AperFunction,Conductor*%
%ADD20C,1.000000*%
%TD*%
%TA.AperFunction,Conductor*%
%ADD21C,0.240000*%
%TD*%
%TA.AperFunction,Conductor*%
%ADD22C,0.400000*%
%TD*%
%TA.AperFunction,Conductor*%
%ADD23C,0.250000*%
%TD*%
G04 APERTURE END LIST*
D10*
%TO.P,R34,1*%
%TO.N,Net-(JP2-B)*%
X49750000Y-9000000D03*
%TO.P,R34,2*%
%TO.N,GND*%
X49750000Y-7175000D03*
%TD*%
%TO.P,R31,1*%
%TO.N,Net-(JP1-B)*%
X52500000Y-9000000D03*
%TO.P,R31,2*%
%TO.N,GND*%
X52500000Y-7175000D03*
%TD*%
D11*
%TO.P,J21,1,Pin_1*%
%TO.N,/servo_control/servo17*%
X58000000Y-56000000D03*
D12*
%TO.P,J21,2,Pin_2*%
%TO.N,6V_servo*%
X58000000Y-58540000D03*
%TO.P,J21,3,Pin_3*%
%TO.N,GND*%
X58000000Y-61080000D03*
%TD*%
D10*
%TO.P,R30,1*%
%TO.N,Net-(JP3-B)*%
X47000000Y-9000000D03*
%TO.P,R30,2*%
%TO.N,GND*%
X47000000Y-7175000D03*
%TD*%
D13*
%TO.P,R38,2*%
%TO.N,GND*%
X36000000Y-40912500D03*
%TO.P,R38,1*%
%TO.N,/servo_control/A5_2*%
X36000000Y-39087500D03*
%TD*%
D11*
%TO.P,J17,1,Pin_1*%
%TO.N,/servo_control/servo13*%
X29000000Y-56000000D03*
D12*
%TO.P,J17,2,Pin_2*%
%TO.N,6V_servo*%
X29000000Y-58540000D03*
%TO.P,J17,3,Pin_3*%
%TO.N,GND*%
X29000000Y-61080000D03*
%TD*%
D11*
%TO.P,J13,1,Pin_1*%
%TO.N,/servo_control/servo9*%
X0Y-56000000D03*
D12*
%TO.P,J13,2,Pin_2*%
%TO.N,6V_servo*%
X0Y-58540000D03*
%TO.P,J13,3,Pin_3*%
%TO.N,GND*%
X0Y-61080000D03*
%TD*%
D13*
%TO.P,R40,2*%
%TO.N,GND*%
X24000000Y-40912500D03*
%TO.P,R40,1*%
%TO.N,Net-(JP8-B)*%
X24000000Y-39087500D03*
%TD*%
%TO.P,R39,2*%
%TO.N,GND*%
X30000000Y-40912500D03*
%TO.P,R39,1*%
%TO.N,Net-(JP10-B)*%
X30000000Y-39087500D03*
%TD*%
D11*
%TO.P,J7,1,Pin_1*%
%TO.N,/servo_control/servo5*%
X25000000Y7000000D03*
D12*
%TO.P,J7,2,Pin_2*%
%TO.N,6V_servo*%
X25000000Y9540000D03*
%TO.P,J7,3,Pin_3*%
%TO.N,GND*%
X25000000Y12080000D03*
%TD*%
D14*
%TO.P,R9,2*%
%TO.N,GND*%
X49087500Y-24500000D03*
%TO.P,R9,1*%
%TO.N,Net-(J1-Pin_29)*%
X50912500Y-24500000D03*
%TD*%
D11*
%TO.P,J16,1,Pin_1*%
%TO.N,/servo_control/servo12*%
X25000000Y-56000000D03*
D12*
%TO.P,J16,2,Pin_2*%
%TO.N,6V_servo*%
X25000000Y-58540000D03*
%TO.P,J16,3,Pin_3*%
%TO.N,GND*%
X25000000Y-61080000D03*
%TD*%
D15*
%TO.P,J3,1*%
%TO.N,GND*%
X-1000000Y-43000000D03*
%TO.P,J3,2*%
%TO.N,7.4V_batt*%
X-1000000Y-39500000D03*
%TD*%
D11*
%TO.P,J24,1,Pin_1*%
%TO.N,/servo_control/pwm3*%
X14225000Y-61225000D03*
D12*
%TO.P,J24,2,Pin_2*%
%TO.N,5V_pi*%
X16765000Y-61225000D03*
%TO.P,J24,3,Pin_3*%
%TO.N,GND*%
X19305000Y-61225000D03*
%TD*%
D10*
%TO.P,R32,1*%
%TO.N,/servo_control/A5_1*%
X38500000Y-9075007D03*
%TO.P,R32,2*%
%TO.N,GND*%
X38500000Y-7250007D03*
%TD*%
D14*
%TO.P,R4,1*%
%TO.N,Net-(J1-Pin_35)*%
X51150000Y-32750000D03*
%TO.P,R4,2*%
%TO.N,GND*%
X49325000Y-32750000D03*
%TD*%
D11*
%TO.P,J11,1,Pin_1*%
%TO.N,/servo_control/servo1*%
X54000000Y7000000D03*
D12*
%TO.P,J11,2,Pin_2*%
%TO.N,6V_servo*%
X54000000Y9540000D03*
%TO.P,J11,3,Pin_3*%
%TO.N,GND*%
X54000000Y12080000D03*
%TD*%
D14*
%TO.P,R8,1*%
%TO.N,Net-(J1-Pin_33)*%
X51075000Y-30000000D03*
%TO.P,R8,2*%
%TO.N,GND*%
X49250000Y-30000000D03*
%TD*%
D11*
%TO.P,J9,1,Pin_1*%
%TO.N,/servo_control/servo3*%
X33000000Y7000000D03*
D12*
%TO.P,J9,2,Pin_2*%
%TO.N,6V_servo*%
X33000000Y9540000D03*
%TO.P,J9,3,Pin_3*%
%TO.N,GND*%
X33000000Y12080000D03*
%TD*%
D11*
%TO.P,J8,1,Pin_1*%
%TO.N,/servo_control/servo4*%
X29000000Y7000000D03*
D12*
%TO.P,J8,2,Pin_2*%
%TO.N,6V_servo*%
X29000000Y9540000D03*
%TO.P,J8,3,Pin_3*%
%TO.N,GND*%
X29000000Y12080000D03*
%TD*%
D16*
%TO.P,H4,1,1*%
%TO.N,GND*%
X58000000Y-49000000D03*
D17*
X58000000Y-49000000D03*
%TD*%
D16*
%TO.P,H1,1,1*%
%TO.N,GND*%
X0Y0D03*
D17*
X0Y0D03*
%TD*%
D11*
%TO.P,J12,1,Pin_1*%
%TO.N,/servo_control/servo0*%
X58000000Y7000000D03*
D12*
%TO.P,J12,2,Pin_2*%
%TO.N,6V_servo*%
X58000000Y9540000D03*
%TO.P,J12,3,Pin_3*%
%TO.N,GND*%
X58000000Y12080000D03*
%TD*%
D11*
%TO.P,J22,1,Pin_1*%
%TO.N,/servo_control/pwm1*%
X14225000Y12275000D03*
D12*
%TO.P,J22,2,Pin_2*%
%TO.N,5V_pi*%
X16765000Y12275000D03*
%TO.P,J22,3,Pin_3*%
%TO.N,GND*%
X19305000Y12275000D03*
%TD*%
D13*
%TO.P,R37,1*%
%TO.N,Net-(JP7-B)*%
X21000000Y-39087500D03*
%TO.P,R37,2*%
%TO.N,GND*%
X21000000Y-40912500D03*
%TD*%
D10*
%TO.P,R29,2*%
%TO.N,GND*%
X41500000Y-7175000D03*
%TO.P,R29,1*%
%TO.N,Net-(JP5-B)*%
X41500000Y-9000000D03*
%TD*%
D16*
%TO.P,H2,1,1*%
%TO.N,GND*%
X58000000Y0D03*
D17*
X58000000Y0D03*
%TD*%
D14*
%TO.P,R7,1*%
%TO.N,Net-(J1-Pin_37)*%
X51175000Y-35750000D03*
%TO.P,R7,2*%
%TO.N,GND*%
X49350000Y-35750000D03*
%TD*%
D11*
%TO.P,J4,1,Pin_1*%
%TO.N,/servo_control/servo8*%
X0Y7000000D03*
D12*
%TO.P,J4,2,Pin_2*%
%TO.N,6V_servo*%
X0Y9540000D03*
%TO.P,J4,3,Pin_3*%
%TO.N,GND*%
X0Y12080000D03*
%TD*%
D11*
%TO.P,J20,1,Pin_1*%
%TO.N,/servo_control/servo16*%
X54000000Y-56000000D03*
D12*
%TO.P,J20,2,Pin_2*%
%TO.N,6V_servo*%
X54000000Y-58540000D03*
%TO.P,J20,3,Pin_3*%
%TO.N,GND*%
X54000000Y-61080000D03*
%TD*%
D11*
%TO.P,J18,1,Pin_1*%
%TO.N,/servo_control/servo14*%
X33000000Y-56000000D03*
D12*
%TO.P,J18,2,Pin_2*%
%TO.N,6V_servo*%
X33000000Y-58540000D03*
%TO.P,J18,3,Pin_3*%
%TO.N,GND*%
X33000000Y-61080000D03*
%TD*%
D11*
%TO.P,J25,1,Pin_1*%
%TO.N,/servo_control/pwm4*%
X39225000Y-61225000D03*
D12*
%TO.P,J25,2,Pin_2*%
%TO.N,5V_pi*%
X41765000Y-61225000D03*
%TO.P,J25,3,Pin_3*%
%TO.N,GND*%
X44305000Y-61225000D03*
%TD*%
D11*
%TO.P,J5,1,Pin_1*%
%TO.N,/servo_control/servo7*%
X4000000Y7000000D03*
D12*
%TO.P,J5,2,Pin_2*%
%TO.N,6V_servo*%
X4000000Y9540000D03*
%TO.P,J5,3,Pin_3*%
%TO.N,GND*%
X4000000Y12080000D03*
%TD*%
D11*
%TO.P,J15,1,Pin_1*%
%TO.N,/servo_control/servo11*%
X8000000Y-56000000D03*
D12*
%TO.P,J15,2,Pin_2*%
%TO.N,6V_servo*%
X8000000Y-58540000D03*
%TO.P,J15,3,Pin_3*%
%TO.N,GND*%
X8000000Y-61080000D03*
%TD*%
D11*
%TO.P,J6,1,Pin_1*%
%TO.N,/servo_control/servo6*%
X8000000Y7000000D03*
D12*
%TO.P,J6,2,Pin_2*%
%TO.N,6V_servo*%
X8000000Y9540000D03*
%TO.P,J6,3,Pin_3*%
%TO.N,GND*%
X8000000Y12080000D03*
%TD*%
D10*
%TO.P,R33,2*%
%TO.N,GND*%
X44250000Y-7175000D03*
%TO.P,R33,1*%
%TO.N,Net-(JP4-B)*%
X44250000Y-9000000D03*
%TD*%
D16*
%TO.P,H3,1,1*%
%TO.N,GND*%
X0Y-49000000D03*
D17*
X0Y-49000000D03*
%TD*%
D13*
%TO.P,R36,1*%
%TO.N,Net-(JP9-B)*%
X27000000Y-39087500D03*
%TO.P,R36,2*%
%TO.N,GND*%
X27000000Y-40912500D03*
%TD*%
D12*
%TO.P,J2,12,Pin_12*%
%TO.N,Net-(J1-Pin_37)*%
X54500000Y-30875000D03*
%TO.P,J2,11,Pin_11*%
%TO.N,3V3_pi*%
X57040000Y-30875000D03*
%TO.P,J2,10,Pin_10*%
%TO.N,Net-(J1-Pin_35)*%
X54500000Y-28335000D03*
%TO.P,J2,9,Pin_9*%
%TO.N,3V3_pi*%
X57040000Y-28335000D03*
%TO.P,J2,8,Pin_8*%
%TO.N,Net-(J1-Pin_33)*%
X54500000Y-25795000D03*
%TO.P,J2,7,Pin_7*%
%TO.N,3V3_pi*%
X57040000Y-25795000D03*
%TO.P,J2,6,Pin_6*%
%TO.N,Net-(J1-Pin_31)*%
X54500000Y-23255000D03*
%TO.P,J2,5,Pin_5*%
%TO.N,3V3_pi*%
X57040000Y-23255000D03*
%TO.P,J2,4,Pin_4*%
%TO.N,Net-(J1-Pin_29)*%
X54500000Y-20715000D03*
%TO.P,J2,3,Pin_3*%
%TO.N,3V3_pi*%
X57040000Y-20715000D03*
%TO.P,J2,2,Pin_2*%
%TO.N,Net-(J1-Pin_27)*%
X54500000Y-18175000D03*
D11*
%TO.P,J2,1,Pin_1*%
%TO.N,3V3_pi*%
X57040000Y-18175000D03*
%TD*%
D14*
%TO.P,R5,1*%
%TO.N,Net-(J1-Pin_31)*%
X51075000Y-27250000D03*
%TO.P,R5,2*%
%TO.N,GND*%
X49250000Y-27250000D03*
%TD*%
D11*
%TO.P,J23,1,Pin_1*%
%TO.N,/servo_control/pwm2*%
X39500000Y12250000D03*
D12*
%TO.P,J23,2,Pin_2*%
%TO.N,5V_pi*%
X42040000Y12250000D03*
%TO.P,J23,3,Pin_3*%
%TO.N,GND*%
X44580000Y12250000D03*
%TD*%
D11*
%TO.P,J10,1,Pin_1*%
%TO.N,/servo_control/servo2*%
X50000000Y7000000D03*
D12*
%TO.P,J10,2,Pin_2*%
%TO.N,6V_servo*%
X50000000Y9540000D03*
%TO.P,J10,3,Pin_3*%
%TO.N,GND*%
X50000000Y12080000D03*
%TD*%
D11*
%TO.P,J1,1,Pin_1*%
%TO.N,3V3_pi*%
X4870000Y-1290000D03*
D12*
%TO.P,J1,2,Pin_2*%
%TO.N,5V_pi*%
X4870000Y1250000D03*
%TO.P,J1,3,Pin_3*%
%TO.N,SDA_3V3*%
X7410000Y-1290000D03*
%TO.P,J1,4,Pin_4*%
%TO.N,unconnected-(J1-Pin_4-Pad4)*%
X7410000Y1250000D03*
%TO.P,J1,5,Pin_5*%
%TO.N,SCL_3V3*%
X9950000Y-1290000D03*
%TO.P,J1,6,Pin_6*%
%TO.N,GND*%
X9950000Y1250000D03*
%TO.P,J1,7,Pin_7*%
%TO.N,CLK_3V3*%
X12490000Y-1290000D03*
%TO.P,J1,8,Pin_8*%
%TO.N,Net-(J1-Pin_8)*%
X12490000Y1250000D03*
%TO.P,J1,9,Pin_9*%
%TO.N,unconnected-(J1-Pin_9-Pad9)*%
X15030000Y-1290000D03*
%TO.P,J1,10,Pin_10*%
%TO.N,unconnected-(J1-Pin_10-Pad10)*%
X15030000Y1250000D03*
%TO.P,J1,11,Pin_11*%
%TO.N,unconnected-(J1-Pin_11-Pad11)*%
X17570000Y-1290000D03*
%TO.P,J1,12,Pin_12*%
%TO.N,unconnected-(J1-Pin_12-Pad12)*%
X17570000Y1250000D03*
%TO.P,J1,13,Pin_13*%
%TO.N,BattLow*%
X20110000Y-1290000D03*
%TO.P,J1,14,Pin_14*%
%TO.N,unconnected-(J1-Pin_14-Pad14)*%
X20110000Y1250000D03*
%TO.P,J1,15,Pin_15*%
%TO.N,unconnected-(J1-Pin_15-Pad15)*%
X22650000Y-1290000D03*
%TO.P,J1,16,Pin_16*%
%TO.N,unconnected-(J1-Pin_16-Pad16)*%
X22650000Y1250000D03*
%TO.P,J1,17,Pin_17*%
%TO.N,unconnected-(J1-Pin_17-Pad17)*%
X25190000Y-1290000D03*
%TO.P,J1,18,Pin_18*%
%TO.N,unconnected-(J1-Pin_18-Pad18)*%
X25190000Y1250000D03*
%TO.P,J1,19,Pin_19*%
%TO.N,unconnected-(J1-Pin_19-Pad19)*%
X27730000Y-1290000D03*
%TO.P,J1,20,Pin_20*%
%TO.N,unconnected-(J1-Pin_20-Pad20)*%
X27730000Y1250000D03*
%TO.P,J1,21,Pin_21*%
%TO.N,unconnected-(J1-Pin_21-Pad21)*%
X30270000Y-1290000D03*
%TO.P,J1,22,Pin_22*%
%TO.N,unconnected-(J1-Pin_22-Pad22)*%
X30270000Y1250000D03*
%TO.P,J1,23,Pin_23*%
%TO.N,unconnected-(J1-Pin_23-Pad23)*%
X32810000Y-1290000D03*
%TO.P,J1,24,Pin_24*%
%TO.N,unconnected-(J1-Pin_24-Pad24)*%
X32810000Y1250000D03*
%TO.P,J1,25,Pin_25*%
%TO.N,unconnected-(J1-Pin_25-Pad25)*%
X35350000Y-1290000D03*
%TO.P,J1,26,Pin_26*%
%TO.N,unconnected-(J1-Pin_26-Pad26)*%
X35350000Y1250000D03*
%TO.P,J1,27,Pin_27*%
%TO.N,Net-(J1-Pin_27)*%
X37890000Y-1290000D03*
%TO.P,J1,28,Pin_28*%
%TO.N,unconnected-(J1-Pin_28-Pad28)*%
X37890000Y1250000D03*
%TO.P,J1,29,Pin_29*%
%TO.N,Net-(J1-Pin_29)*%
X40430000Y-1290000D03*
%TO.P,J1,30,Pin_30*%
%TO.N,unconnected-(J1-Pin_30-Pad30)*%
X40430000Y1250000D03*
%TO.P,J1,31,Pin_31*%
%TO.N,Net-(J1-Pin_31)*%
X42970000Y-1290000D03*
%TO.P,J1,32,Pin_32*%
%TO.N,unconnected-(J1-Pin_32-Pad32)*%
X42970000Y1250000D03*
%TO.P,J1,33,Pin_33*%
%TO.N,Net-(J1-Pin_33)*%
X45510000Y-1290000D03*
%TO.P,J1,34,Pin_34*%
%TO.N,unconnected-(J1-Pin_34-Pad34)*%
X45510000Y1250000D03*
%TO.P,J1,35,Pin_35*%
%TO.N,Net-(J1-Pin_35)*%
X48050000Y-1290000D03*
%TO.P,J1,36,Pin_36*%
%TO.N,unconnected-(J1-Pin_36-Pad36)*%
X48050000Y1250000D03*
%TO.P,J1,37,Pin_37*%
%TO.N,Net-(J1-Pin_37)*%
X50590000Y-1290000D03*
%TO.P,J1,38,Pin_38*%
%TO.N,unconnected-(J1-Pin_38-Pad38)*%
X50590000Y1250000D03*
%TO.P,J1,39,Pin_39*%
%TO.N,GND*%
X53130000Y-1290000D03*
%TO.P,J1,40,Pin_40*%
%TO.N,unconnected-(J1-Pin_40-Pad40)*%
X53130000Y1250000D03*
%TD*%
D14*
%TO.P,R6,2*%
%TO.N,GND*%
X49250000Y-21500000D03*
%TO.P,R6,1*%
%TO.N,Net-(J1-Pin_27)*%
X51075000Y-21500000D03*
%TD*%
D11*
%TO.P,J19,1,Pin_1*%
%TO.N,/servo_control/servo15*%
X50000000Y-56000000D03*
D12*
%TO.P,J19,2,Pin_2*%
%TO.N,6V_servo*%
X50000000Y-58540000D03*
%TO.P,J19,3,Pin_3*%
%TO.N,GND*%
X50000000Y-61080000D03*
%TD*%
D13*
%TO.P,R35,2*%
%TO.N,GND*%
X33000000Y-40912500D03*
%TO.P,R35,1*%
%TO.N,Net-(JP11-B)*%
X33000000Y-39087500D03*
%TD*%
D11*
%TO.P,J14,1,Pin_1*%
%TO.N,/servo_control/servo10*%
X4000000Y-56000000D03*
D12*
%TO.P,J14,2,Pin_2*%
%TO.N,6V_servo*%
X4000000Y-58540000D03*
%TO.P,J14,3,Pin_3*%
%TO.N,GND*%
X4000000Y-61080000D03*
%TD*%
D10*
%TO.P,JP2,1,A*%
%TO.N,5V_pi*%
X47600000Y-15575000D03*
%TO.P,JP2,2,B*%
%TO.N,Net-(JP2-B)*%
X47600000Y-13750000D03*
%TD*%
%TO.P,JP3,1,A*%
%TO.N,5V_pi*%
X44600000Y-15662500D03*
%TO.P,JP3,2,B*%
%TO.N,Net-(JP3-B)*%
X44600000Y-13837500D03*
%TD*%
D13*
%TO.P,JP9,1,A*%
%TO.N,5V_pi*%
X24650000Y-32250000D03*
%TO.P,JP9,2,B*%
%TO.N,Net-(JP9-B)*%
X24650000Y-34075000D03*
%TD*%
%TO.P,JP11,1,A*%
%TO.N,5V_pi*%
X30730000Y-32225000D03*
%TO.P,JP11,2,B*%
%TO.N,Net-(JP11-B)*%
X30730000Y-34050000D03*
%TD*%
D10*
%TO.P,JP4,1,A*%
%TO.N,5V_pi*%
X41600000Y-15675000D03*
%TO.P,JP4,2,B*%
%TO.N,Net-(JP4-B)*%
X41600000Y-13850000D03*
%TD*%
D13*
%TO.P,JP12,1,A*%
%TO.N,5V_pi*%
X33630000Y-32237500D03*
%TO.P,JP12,2,B*%
%TO.N,/servo_control/A5_2*%
X33630000Y-34062500D03*
%TD*%
D10*
%TO.P,JP1,1,A*%
%TO.N,5V_pi*%
X50500000Y-15412500D03*
%TO.P,JP1,2,B*%
%TO.N,Net-(JP1-B)*%
X50500000Y-13587500D03*
%TD*%
D13*
%TO.P,JP7,1,A*%
%TO.N,5V_pi*%
X18750000Y-32250000D03*
%TO.P,JP7,2,B*%
%TO.N,Net-(JP7-B)*%
X18750000Y-34075000D03*
%TD*%
%TO.P,JP10,1,A*%
%TO.N,5V_pi*%
X27830000Y-32250000D03*
%TO.P,JP10,2,B*%
%TO.N,Net-(JP10-B)*%
X27830000Y-34075000D03*
%TD*%
%TO.P,JP8,1,A*%
%TO.N,5V_pi*%
X21650000Y-32250000D03*
%TO.P,JP8,2,B*%
%TO.N,Net-(JP8-B)*%
X21650000Y-34075000D03*
%TD*%
D10*
%TO.P,JP6,1,A*%
%TO.N,5V_pi*%
X35600000Y-15662500D03*
%TO.P,JP6,2,B*%
%TO.N,/servo_control/A5_1*%
X35600000Y-13837500D03*
%TD*%
%TO.P,JP5,1,A*%
%TO.N,5V_pi*%
X38600000Y-15675000D03*
%TO.P,JP5,2,B*%
%TO.N,Net-(JP5-B)*%
X38600000Y-13850000D03*
%TD*%
D18*
%TO.N,5V_pi*%
X51000000Y-17500000D03*
%TO.N,GND*%
X36091501Y-9091501D03*
X22750000Y-26750000D03*
X27000000Y-26750000D03*
X47875000Y-18625000D03*
%TO.N,7.4V_batt*%
X15500000Y-40000000D03*
%TO.N,GND*%
X34500000Y-28250000D03*
%TO.N,Net-(U5B--)*%
X23250000Y-52000000D03*
X37500000Y-44750000D03*
%TO.N,Net-(U5B-+)*%
X46000000Y-52750000D03*
X41750000Y-49750000D03*
%TO.N,GND*%
X33750000Y-49750000D03*
X42587500Y-51750000D03*
X10250000Y-17250000D03*
X10386050Y-25113950D03*
%TO.N,5V_pi*%
X18750000Y-30750000D03*
%TO.N,/servo_control/SCL_5V*%
X44500000Y-19000000D03*
%TO.N,/servo_control/SDA_5V*%
X45500000Y-18500000D03*
X42500000Y-28500000D03*
%TO.N,/servo_control/SCL_5V*%
X42750000Y-25500000D03*
%TO.N,SDA_3V3*%
X46250000Y-29000000D03*
%TO.N,SCL_3V3*%
X46250000Y-26000000D03*
%TO.N,CLK_3V3*%
X46250000Y-22950000D03*
X38500000Y-21500000D03*
%TO.N,SDA_3V3*%
X38000000Y-27750000D03*
%TO.N,SCL_3V3*%
X38000000Y-26250000D03*
%TO.N,Net-(U5B--)*%
X47000000Y-48500000D03*
X44000000Y-44000000D03*
X45500000Y-49000000D03*
%TO.N,Net-(U5A-+)*%
X46500000Y-46500000D03*
X37000000Y-50000000D03*
%TO.N,Net-(U5A--)*%
X41500000Y-54500000D03*
X35750000Y-50500000D03*
%TO.N,Net-(U4-OUT)*%
X36000000Y-56000000D03*
X23000000Y-43000000D03*
%TO.N,/servo_control/servo0*%
X42295001Y-6000000D03*
%TO.N,GND*%
X16500000Y-42750000D03*
%TO.N,5V_pi*%
X25750000Y-31000000D03*
%TO.N,7.4V_batt*%
X15000000Y-30000000D03*
X7500000Y-38500000D03*
X10750000Y-38500000D03*
X3250000Y-29500000D03*
X13250000Y-38500000D03*
%TO.N,GND*%
X34000000Y-41750000D03*
%TO.N,6V_servo*%
X-3075000Y-33000000D03*
X4500000Y-50750000D03*
X-3075000Y-29500000D03*
X-3075000Y-17750000D03*
X-3075000Y-24750000D03*
%TO.N,3V3_pi*%
X18918750Y-9331250D03*
%TO.N,BattLow*%
X40412500Y-51500000D03*
%TO.N,/servo_control/servo9*%
X26500000Y-42500000D03*
%TO.N,/servo_control/servo12*%
X29272012Y-44009064D03*
%TO.N,/servo_control/servo15*%
X32335894Y-42859403D03*
%TO.N,/servo_control/servo10*%
X27332053Y-43054702D03*
%TO.N,/servo_control/servo13*%
X30500000Y-44000000D03*
%TO.N,/servo_control/servo16*%
X33167947Y-42304702D03*
%TO.N,/servo_control/servo11*%
X28347339Y-43628296D03*
%TO.N,/servo_control/servo14*%
X31503843Y-43414105D03*
%TO.N,/servo_control/servo17*%
X35250000Y-35250000D03*
%TO.N,/servo_control/pwm3*%
X35259117Y-34240883D03*
%TO.N,/servo_control/pwm4*%
X35262119Y-33225650D03*
%TO.N,Net-(JP1-B)*%
X45552876Y-10747999D03*
%TO.N,Net-(JP2-B)*%
X44553589Y-10785810D03*
%TO.N,Net-(JP3-B)*%
X43535583Y-10785583D03*
%TO.N,Net-(JP4-B)*%
X42536605Y-10740335D03*
%TO.N,/servo_control/A5_1*%
X40536681Y-10749289D03*
%TO.N,/servo_control/A5_2*%
X29250003Y-37500000D03*
%TO.N,Net-(JP7-B)*%
X24226962Y-37504179D03*
%TO.N,Net-(JP8-B)*%
X25226847Y-37488874D03*
%TO.N,Net-(JP9-B)*%
X26240883Y-37490883D03*
%TO.N,Net-(JP10-B)*%
X27250000Y-37500000D03*
%TO.N,Net-(JP11-B)*%
X28250000Y-37500000D03*
%TO.N,Net-(U2-FB)*%
X12500000Y-13500000D03*
X18500000Y-40000000D03*
%TO.N,Net-(U1-PGATE)*%
X15750000Y-20750000D03*
X16750000Y-31000000D03*
%TO.N,Net-(JP5-B)*%
X41536678Y-10752621D03*
%TO.N,/servo_control/pwm1*%
X37510779Y-17029032D03*
%TO.N,/servo_control/servo8*%
X36680702Y-16471384D03*
%TO.N,/servo_control/servo3*%
X37852204Y-4214535D03*
%TO.N,/servo_control/servo4*%
X36750000Y-4892400D03*
%TO.N,/servo_control/servo5*%
X36035902Y-5612400D03*
%TO.N,/servo_control/servo6*%
X35365883Y-6365883D03*
%TO.N,/servo_control/servo2*%
X41000000Y-4000000D03*
%TO.N,/servo_control/servo7*%
X35375000Y-7375000D03*
%TO.N,/servo_control/servo1*%
X41645002Y-5000000D03*
%TO.N,/servo_control/pwm2*%
X38410077Y-17466374D03*
%TO.N,3V3_pi*%
X25750000Y-20500000D03*
X33750000Y-25250000D03*
X42332800Y-23750000D03*
X28000000Y-29000000D03*
X25250000Y-25500000D03*
X51250000Y-23000000D03*
%TO.N,Net-(U2-SW)*%
X12000000Y-45250000D03*
X-1000000Y-14000000D03*
%TD*%
D19*
%TO.N,Net-(J1-Pin_27)*%
X51075000Y-21500000D02*
X51175000Y-21500000D01*
X51175000Y-21500000D02*
X54500000Y-18175000D01*
%TO.N,Net-(J1-Pin_29)*%
X50912500Y-24500000D02*
X54500000Y-20912500D01*
X54500000Y-20912500D02*
X54500000Y-20715000D01*
%TO.N,Net-(J1-Pin_31)*%
X51075000Y-27250000D02*
X51075000Y-26680000D01*
X51075000Y-26680000D02*
X54500000Y-23255000D01*
%TO.N,Net-(J1-Pin_33)*%
X51075000Y-30000000D02*
X51075000Y-29220000D01*
X51075000Y-29220000D02*
X54500000Y-25795000D01*
%TO.N,Net-(J1-Pin_35)*%
X51150000Y-32750000D02*
X51150000Y-31685000D01*
X51150000Y-31685000D02*
X54500000Y-28335000D01*
%TO.N,Net-(J1-Pin_37)*%
X51175000Y-35750000D02*
X51175000Y-34200000D01*
X51175000Y-34200000D02*
X54500000Y-30875000D01*
D20*
%TO.N,GND*%
X58000000Y0D02*
X60000000Y-2000000D01*
X60000000Y-2000000D02*
X60000000Y-47000000D01*
X60000000Y-47000000D02*
X58000000Y-49000000D01*
D19*
%TO.N,5V_pi*%
X51000000Y-17500000D02*
X51000000Y-15912500D01*
X51000000Y-15912500D02*
X50500000Y-15412500D01*
D21*
%TO.N,GND*%
X36091501Y-9091501D02*
X37932995Y-7250007D01*
X37932995Y-7250007D02*
X38500000Y-7250007D01*
D20*
X58000000Y0D02*
X54420000Y0D01*
X54420000Y0D02*
X53130000Y-1290000D01*
D22*
X49250000Y-21500000D02*
X49250000Y-20000000D01*
X49250000Y-20000000D02*
X47875000Y-18625000D01*
D21*
%TO.N,/servo_control/servo15*%
X32335894Y-42859403D02*
X37976491Y-48500000D01*
X37976491Y-48500000D02*
X43250000Y-48500000D01*
X43250000Y-48500000D02*
X50000000Y-55250000D01*
X50000000Y-55250000D02*
X50000000Y-56000000D01*
%TO.N,/servo_control/servo16*%
X33167947Y-42304702D02*
X38863245Y-48000000D01*
X38863245Y-48000000D02*
X43481766Y-48000000D01*
X43481766Y-48000000D02*
X50311766Y-54830000D01*
X50311766Y-54830000D02*
X52830000Y-54830000D01*
X52830000Y-54830000D02*
X54000000Y-56000000D01*
D22*
%TO.N,Net-(U5A--)*%
X35750000Y-50500000D02*
X38250000Y-53000000D01*
X38250000Y-53000000D02*
X40000000Y-53000000D01*
X40000000Y-53000000D02*
X41500000Y-54500000D01*
D19*
%TO.N,GND*%
X49250000Y-21500000D02*
X53325000Y-17425000D01*
X53325000Y-17425000D02*
X53325000Y-8000000D01*
X53325000Y-8000000D02*
X52500000Y-7175000D01*
D22*
%TO.N,5V_pi*%
X33630000Y-32237500D02*
X32950000Y-31557500D01*
X32950000Y-31557500D02*
X32950000Y-24057822D01*
X32950000Y-24057822D02*
X39250000Y-17757822D01*
X39250000Y-17757822D02*
X39250000Y-17162500D01*
X39250000Y-17162500D02*
X37750000Y-15662500D01*
X37750000Y-15662500D02*
X35600000Y-15662500D01*
X18750000Y-32250000D02*
X33617500Y-32250000D01*
X33617500Y-32250000D02*
X33630000Y-32237500D01*
X18750000Y-30750000D02*
X18750000Y-32250000D01*
D21*
%TO.N,/servo_control/SDA_5V*%
X42500000Y-28500000D02*
X45500000Y-25500000D01*
X45500000Y-25500000D02*
X45500000Y-18500000D01*
%TO.N,/servo_control/SCL_5V*%
X42750000Y-25500000D02*
X44500000Y-23750000D01*
X44500000Y-23750000D02*
X44500000Y-19000000D01*
D22*
%TO.N,GND*%
X49250000Y-21500000D02*
X49250000Y-35650000D01*
X49250000Y-35650000D02*
X49350000Y-35750000D01*
D21*
%TO.N,/servo_control/servo0*%
X42295001Y-6000000D02*
X47534630Y-6000000D01*
X47534630Y-6000000D02*
X51960000Y-1574630D01*
X51960000Y1734630D02*
X57225370Y7000000D01*
X51960000Y-1574630D02*
X51960000Y1734630D01*
X57225370Y7000000D02*
X58000000Y7000000D01*
D23*
%TO.N,/servo_control/servo1*%
X41645002Y-5000000D02*
X46001701Y-5000000D01*
X46001701Y-5000000D02*
X49250000Y-1751701D01*
X49250000Y-1751701D02*
X49250000Y2250000D01*
X49250000Y2250000D02*
X54000000Y7000000D01*
%TO.N,/servo_control/servo2*%
X41000000Y-4000000D02*
X45249999Y-4000000D01*
X45249999Y-4000000D02*
X46750000Y-2499999D01*
X46750000Y-2499999D02*
X46750000Y3750000D01*
X46750000Y3750000D02*
X50000000Y7000000D01*
D21*
%TO.N,GND*%
X58000000Y0D02*
X52500000Y-5500000D01*
X52500000Y-5500000D02*
X52500000Y-7175000D01*
X18337500Y-40912500D02*
X16500000Y-42750000D01*
X21000000Y-40912500D02*
X18337500Y-40912500D01*
%TO.N,Net-(JP7-B)*%
X24226962Y-37504179D02*
X22643641Y-39087500D01*
X22643641Y-39087500D02*
X21000000Y-39087500D01*
%TO.N,Net-(JP8-B)*%
X25226847Y-37488874D02*
X25226847Y-37860653D01*
X25226847Y-37860653D02*
X24000000Y-39087500D01*
%TO.N,Net-(JP9-B)*%
X27000000Y-39087500D02*
X26240883Y-38328383D01*
X26240883Y-38328383D02*
X26240883Y-37490883D01*
%TO.N,Net-(JP10-B)*%
X30000000Y-39087500D02*
X28385000Y-39087500D01*
X28385000Y-39087500D02*
X27250000Y-37952500D01*
X27250000Y-37952500D02*
X27250000Y-37500000D01*
%TO.N,Net-(JP11-B)*%
X33000000Y-39087500D02*
X32192500Y-38280000D01*
X32192500Y-38280000D02*
X29011769Y-38280000D01*
X29011769Y-38280000D02*
X28250000Y-37518231D01*
X28250000Y-37518231D02*
X28250000Y-37500000D01*
%TO.N,/servo_control/A5_2*%
X36000000Y-39087500D02*
X34412500Y-37500000D01*
X34412500Y-37500000D02*
X29250003Y-37500000D01*
%TO.N,GND*%
X33000000Y-40912500D02*
X21000000Y-40912500D01*
X34000000Y-41750000D02*
X33837500Y-41750000D01*
X33837500Y-41750000D02*
X33000000Y-40912500D01*
X34000000Y-41750000D02*
X35162500Y-41750000D01*
X35162500Y-41750000D02*
X36000000Y-40912500D01*
%TO.N,/servo_control/A5_1*%
X40536681Y-10749289D02*
X40174282Y-10749289D01*
X40174282Y-10749289D02*
X38500000Y-9075007D01*
%TO.N,Net-(JP5-B)*%
X41536678Y-10752621D02*
X41536678Y-9036678D01*
X41536678Y-9036678D02*
X41500000Y-9000000D01*
%TO.N,Net-(JP4-B)*%
X42536605Y-10740335D02*
X42536605Y-10713395D01*
X42536605Y-10713395D02*
X44250000Y-9000000D01*
%TO.N,Net-(JP3-B)*%
X47000000Y-9000000D02*
X45532504Y-9000000D01*
X45532504Y-9000000D02*
X44532504Y-10000000D01*
X44532504Y-10000000D02*
X44321166Y-10000000D01*
X44321166Y-10000000D02*
X43535583Y-10785583D01*
%TO.N,Net-(JP2-B)*%
X49750000Y-9000000D02*
X48722001Y-10027999D01*
X48722001Y-10027999D02*
X45254642Y-10027999D01*
X45254642Y-10027999D02*
X44553589Y-10729052D01*
X44553589Y-10729052D02*
X44553589Y-10785810D01*
%TO.N,GND*%
X52500000Y-7175000D02*
X38575007Y-7175000D01*
X38575007Y-7175000D02*
X38500000Y-7250007D01*
%TO.N,Net-(JP1-B)*%
X50500000Y-13587500D02*
X50500000Y-11000000D01*
X50500000Y-11000000D02*
X52500000Y-9000000D01*
D19*
%TO.N,5V_pi*%
X25750000Y-31000000D02*
X25750000Y-31150000D01*
X25750000Y-31150000D02*
X24650000Y-32250000D01*
D23*
%TO.N,/servo_control/servo3*%
X37852204Y-4214535D02*
X36715000Y-3077331D01*
X36715000Y-3077331D02*
X36715000Y3285000D01*
X36715000Y3285000D02*
X33000000Y7000000D01*
%TO.N,/servo_control/servo5*%
X36035902Y-5612400D02*
X30390699Y-5612400D01*
X30390699Y-5612400D02*
X26500000Y-1721701D01*
X26500000Y-1721701D02*
X26500000Y5500000D01*
X26500000Y5500000D02*
X25000000Y7000000D01*
%TO.N,/servo_control/servo4*%
X36750000Y-4892400D02*
X36607600Y-4750000D01*
X36607600Y-4750000D02*
X32000000Y-4750000D01*
X32000000Y-4750000D02*
X29000000Y-1750000D01*
X29000000Y-1750000D02*
X29000000Y7000000D01*
%TO.N,/servo_control/servo6*%
X35365883Y-6365883D02*
X13174182Y-6365883D01*
X13174182Y-6365883D02*
X8585000Y-1776701D01*
X8585000Y-1776701D02*
X8585000Y6415000D01*
X8585000Y6415000D02*
X8000000Y7000000D01*
%TO.N,/servo_control/servo7*%
X35375000Y-7375000D02*
X11833299Y-7375000D01*
X11833299Y-7375000D02*
X6045000Y-1586701D01*
X6045000Y4955000D02*
X4000000Y7000000D01*
X6045000Y-1586701D02*
X6045000Y4955000D01*
%TO.N,/servo_control/servo8*%
X0Y7000000D02*
X3695000Y3305000D01*
X3695000Y3305000D02*
X3695000Y-2465000D01*
X36677086Y-16475000D02*
X36680702Y-16471384D01*
X3695000Y-2465000D02*
X17705000Y-16475000D01*
X17705000Y-16475000D02*
X36677086Y-16475000D01*
D21*
%TO.N,/servo_control/servo9*%
X2000000Y-53500000D02*
X15500000Y-53500000D01*
X15500000Y-53500000D02*
X26500000Y-42500000D01*
X0Y-55500000D02*
X2000000Y-53500000D01*
X0Y-56000000D02*
X0Y-55500000D01*
%TO.N,/servo_control/servo12*%
X29272012Y-44009064D02*
X25000000Y-48281076D01*
X25000000Y-48281076D02*
X25000000Y-56000000D01*
%TO.N,/servo_control/servo10*%
X5170000Y-54830000D02*
X15556755Y-54830000D01*
X15556755Y-54830000D02*
X27332053Y-43054702D01*
X4000000Y-56000000D02*
X5170000Y-54830000D01*
%TO.N,/servo_control/servo13*%
X30500000Y-44000000D02*
X29000000Y-45500000D01*
X29000000Y-45500000D02*
X29000000Y-56000000D01*
%TO.N,/servo_control/servo11*%
X15975635Y-56000000D02*
X28347339Y-43628296D01*
X8000000Y-56000000D02*
X15975635Y-56000000D01*
%TO.N,/servo_control/servo14*%
X31503843Y-43414105D02*
X33000000Y-44910262D01*
X33000000Y-44910262D02*
X33000000Y-56000000D01*
%TO.N,/servo_control/servo17*%
X35250000Y-35250000D02*
X37250000Y-35250000D01*
X37250000Y-35250000D02*
X58000000Y-56000000D01*
D19*
%TO.N,Net-(JP1-B)*%
X47660499Y-10747999D02*
X45552876Y-10747999D01*
X50500000Y-13587500D02*
X47660499Y-10747999D01*
%TO.N,Net-(JP2-B)*%
X47125000Y-13750000D02*
X44553589Y-11178589D01*
X44553589Y-11178589D02*
X44553589Y-10785810D01*
X47600000Y-13750000D02*
X47125000Y-13750000D01*
%TO.N,Net-(JP3-B)*%
X43535583Y-12773083D02*
X43535583Y-10785583D01*
X44600000Y-13837500D02*
X43535583Y-12773083D01*
%TO.N,Net-(JP4-B)*%
X42536605Y-12913395D02*
X42536605Y-10740335D01*
X41600000Y-13850000D02*
X42536605Y-12913395D01*
%TO.N,Net-(JP5-B)*%
X38600000Y-13850000D02*
X41536678Y-10913322D01*
X41536678Y-10913322D02*
X41536678Y-10752621D01*
%TO.N,/servo_control/A5_1*%
X35600000Y-13837500D02*
X38688211Y-10749289D01*
X38688211Y-10749289D02*
X40536681Y-10749289D01*
%TO.N,/servo_control/A5_2*%
X32687503Y-34062500D02*
X29250003Y-37500000D01*
X33630000Y-34062500D02*
X32687503Y-34062500D01*
%TO.N,Net-(JP7-B)*%
X22179179Y-37504179D02*
X24226962Y-37504179D01*
X18750000Y-34075000D02*
X22179179Y-37504179D01*
%TO.N,Net-(JP8-B)*%
X25226847Y-37176847D02*
X25226847Y-37488874D01*
X22125000Y-34075000D02*
X25226847Y-37176847D01*
X21650000Y-34075000D02*
X22125000Y-34075000D01*
%TO.N,Net-(JP9-B)*%
X24650000Y-34075000D02*
X26240883Y-35665883D01*
X26240883Y-35665883D02*
X26240883Y-37490883D01*
%TO.N,Net-(JP10-B)*%
X27250000Y-34655000D02*
X27250000Y-37500000D01*
X27830000Y-34075000D02*
X27250000Y-34655000D01*
%TO.N,Net-(JP11-B)*%
X30730000Y-34050000D02*
X28250000Y-36530000D01*
X28250000Y-36530000D02*
X28250000Y-37500000D01*
D21*
%TO.N,/servo_control/pwm1*%
X37510779Y-17029032D02*
X37348427Y-17191384D01*
%TO.N,/servo_control/servo8*%
X36680702Y-16471384D02*
X36843054Y-16309032D01*
D19*
%TO.N,5V_pi*%
X35850000Y-15412500D02*
X35600000Y-15662500D01*
X50500000Y-15412500D02*
X35850000Y-15412500D01*
%TD*%
M02*
