%TF.GenerationSoftware,KiCad,Pcbnew,8.0.6-8.0.6-0~ubuntu24.04.1*%
%TF.CreationDate,2024-11-11T20:35:34-05:00*%
%TF.ProjectId,Hexapod_bot,48657861-706f-4645-9f62-6f742e6b6963,rev?*%
%TF.SameCoordinates,Original*%
%TF.FileFunction,Copper,L2,Inr*%
%TF.FilePolarity,Positive*%
%FSLAX46Y46*%
G04 Gerber Fmt 4.6, Leading zero omitted, Abs format (unit mm)*
G04 Created by KiCad (PCBNEW 8.0.6-8.0.6-0~ubuntu24.04.1) date 2024-11-11 20:35:34*
%MOMM*%
%LPD*%
G01*
G04 APERTURE LIST*
%TA.AperFunction,ComponentPad*%
%ADD10R,1.700000X1.700000*%
%TD*%
%TA.AperFunction,ComponentPad*%
%ADD11O,1.700000X1.700000*%
%TD*%
%TA.AperFunction,ComponentPad*%
%ADD12C,1.950000*%
%TD*%
%TA.AperFunction,ComponentPad*%
%ADD13C,2.900000*%
%TD*%
%TA.AperFunction,ViaPad*%
%ADD14C,0.800000*%
%TD*%
%TA.AperFunction,Conductor*%
%ADD15C,0.300000*%
%TD*%
%TA.AperFunction,Conductor*%
%ADD16C,0.240000*%
%TD*%
%TA.AperFunction,Conductor*%
%ADD17C,0.400000*%
%TD*%
%TA.AperFunction,Conductor*%
%ADD18C,0.250000*%
%TD*%
G04 APERTURE END LIST*
D10*
%TO.N,/servo_control/servo17*%
%TO.C,J21*%
X58000000Y-56000000D03*
D11*
%TO.N,6V_servo*%
X58000000Y-58540000D03*
%TO.N,GND*%
X58000000Y-61080000D03*
%TD*%
D10*
%TO.N,/servo_control/servo13*%
%TO.C,J17*%
X29000000Y-56000000D03*
D11*
%TO.N,6V_servo*%
X29000000Y-58540000D03*
%TO.N,GND*%
X29000000Y-61080000D03*
%TD*%
D10*
%TO.N,/servo_control/servo9*%
%TO.C,J13*%
X0Y-56000000D03*
D11*
%TO.N,6V_servo*%
X0Y-58540000D03*
%TO.N,GND*%
X0Y-61080000D03*
%TD*%
D10*
%TO.N,/servo_control/servo5*%
%TO.C,J7*%
X25000000Y7000000D03*
D11*
%TO.N,6V_servo*%
X25000000Y9540000D03*
%TO.N,GND*%
X25000000Y12080000D03*
%TD*%
D10*
%TO.N,/servo_control/servo12*%
%TO.C,J16*%
X25000000Y-56000000D03*
D11*
%TO.N,6V_servo*%
X25000000Y-58540000D03*
%TO.N,GND*%
X25000000Y-61080000D03*
%TD*%
D12*
%TO.N,GND*%
%TO.C,J3*%
X-1000000Y-43000000D03*
%TO.N,7.4V_batt*%
X-1000000Y-39500000D03*
%TD*%
D10*
%TO.N,/servo_control/pwm3*%
%TO.C,J24*%
X14225000Y-61225000D03*
D11*
%TO.N,5V_pi*%
X16765000Y-61225000D03*
%TO.N,GND*%
X19305000Y-61225000D03*
%TD*%
D10*
%TO.N,/servo_control/servo1*%
%TO.C,J11*%
X54000000Y7000000D03*
D11*
%TO.N,6V_servo*%
X54000000Y9540000D03*
%TO.N,GND*%
X54000000Y12080000D03*
%TD*%
D10*
%TO.N,/servo_control/servo3*%
%TO.C,J9*%
X33000000Y7000000D03*
D11*
%TO.N,6V_servo*%
X33000000Y9540000D03*
%TO.N,GND*%
X33000000Y12080000D03*
%TD*%
D10*
%TO.N,/servo_control/servo4*%
%TO.C,J8*%
X29000000Y7000000D03*
D11*
%TO.N,6V_servo*%
X29000000Y9540000D03*
%TO.N,GND*%
X29000000Y12080000D03*
%TD*%
D13*
%TO.N,GND*%
%TO.C,H4*%
X58000000Y-49000000D03*
%TD*%
%TO.N,GND*%
%TO.C,H1*%
X0Y0D03*
%TD*%
D10*
%TO.N,/servo_control/servo0*%
%TO.C,J12*%
X58000000Y7000000D03*
D11*
%TO.N,6V_servo*%
X58000000Y9540000D03*
%TO.N,GND*%
X58000000Y12080000D03*
%TD*%
D10*
%TO.N,/servo_control/pwm1*%
%TO.C,J22*%
X14225000Y12275000D03*
D11*
%TO.N,5V_pi*%
X16765000Y12275000D03*
%TO.N,GND*%
X19305000Y12275000D03*
%TD*%
D13*
%TO.N,GND*%
%TO.C,H2*%
X58000000Y0D03*
%TD*%
D10*
%TO.N,/servo_control/servo8*%
%TO.C,J4*%
X0Y7000000D03*
D11*
%TO.N,6V_servo*%
X0Y9540000D03*
%TO.N,GND*%
X0Y12080000D03*
%TD*%
D10*
%TO.N,/servo_control/servo16*%
%TO.C,J20*%
X54000000Y-56000000D03*
D11*
%TO.N,6V_servo*%
X54000000Y-58540000D03*
%TO.N,GND*%
X54000000Y-61080000D03*
%TD*%
D10*
%TO.N,/servo_control/servo14*%
%TO.C,J18*%
X33000000Y-56000000D03*
D11*
%TO.N,6V_servo*%
X33000000Y-58540000D03*
%TO.N,GND*%
X33000000Y-61080000D03*
%TD*%
D10*
%TO.N,/servo_control/pwm4*%
%TO.C,J25*%
X39225000Y-61225000D03*
D11*
%TO.N,5V_pi*%
X41765000Y-61225000D03*
%TO.N,GND*%
X44305000Y-61225000D03*
%TD*%
D10*
%TO.N,/servo_control/servo7*%
%TO.C,J5*%
X4000000Y7000000D03*
D11*
%TO.N,6V_servo*%
X4000000Y9540000D03*
%TO.N,GND*%
X4000000Y12080000D03*
%TD*%
D10*
%TO.N,/servo_control/servo11*%
%TO.C,J15*%
X8000000Y-56000000D03*
D11*
%TO.N,6V_servo*%
X8000000Y-58540000D03*
%TO.N,GND*%
X8000000Y-61080000D03*
%TD*%
D10*
%TO.N,/servo_control/servo6*%
%TO.C,J6*%
X8000000Y7000000D03*
D11*
%TO.N,6V_servo*%
X8000000Y9540000D03*
%TO.N,GND*%
X8000000Y12080000D03*
%TD*%
D13*
%TO.N,GND*%
%TO.C,H3*%
X0Y-49000000D03*
%TD*%
D11*
%TO.N,Net-(J1-Pin_37)*%
%TO.C,J2*%
X54500000Y-30875000D03*
%TO.N,3V3_pi*%
X57040000Y-30875000D03*
%TO.N,Net-(J1-Pin_35)*%
X54500000Y-28335000D03*
%TO.N,3V3_pi*%
X57040000Y-28335000D03*
%TO.N,Net-(J1-Pin_33)*%
X54500000Y-25795000D03*
%TO.N,3V3_pi*%
X57040000Y-25795000D03*
%TO.N,Net-(J1-Pin_31)*%
X54500000Y-23255000D03*
%TO.N,3V3_pi*%
X57040000Y-23255000D03*
%TO.N,Net-(J1-Pin_29)*%
X54500000Y-20715000D03*
%TO.N,3V3_pi*%
X57040000Y-20715000D03*
%TO.N,Net-(J1-Pin_27)*%
X54500000Y-18175000D03*
D10*
%TO.N,3V3_pi*%
X57040000Y-18175000D03*
%TD*%
%TO.N,/servo_control/pwm2*%
%TO.C,J23*%
X39500000Y12250000D03*
D11*
%TO.N,5V_pi*%
X42040000Y12250000D03*
%TO.N,GND*%
X44580000Y12250000D03*
%TD*%
D10*
%TO.N,/servo_control/servo2*%
%TO.C,J10*%
X50000000Y7000000D03*
D11*
%TO.N,6V_servo*%
X50000000Y9540000D03*
%TO.N,GND*%
X50000000Y12080000D03*
%TD*%
D10*
%TO.N,3V3_pi*%
%TO.C,J1*%
X4870000Y-1290000D03*
D11*
%TO.N,5V_pi*%
X4870000Y1250000D03*
%TO.N,SDA_3V3*%
X7410000Y-1290000D03*
%TO.N,unconnected-(J1-Pin_4-Pad4)*%
X7410000Y1250000D03*
%TO.N,SCL_3V3*%
X9950000Y-1290000D03*
%TO.N,GND*%
X9950000Y1250000D03*
%TO.N,CLK_3V3*%
X12490000Y-1290000D03*
%TO.N,Net-(J1-Pin_8)*%
X12490000Y1250000D03*
%TO.N,unconnected-(J1-Pin_9-Pad9)*%
X15030000Y-1290000D03*
%TO.N,unconnected-(J1-Pin_10-Pad10)*%
X15030000Y1250000D03*
%TO.N,unconnected-(J1-Pin_11-Pad11)*%
X17570000Y-1290000D03*
%TO.N,unconnected-(J1-Pin_12-Pad12)*%
X17570000Y1250000D03*
%TO.N,BattLow*%
X20110000Y-1290000D03*
%TO.N,unconnected-(J1-Pin_14-Pad14)*%
X20110000Y1250000D03*
%TO.N,unconnected-(J1-Pin_15-Pad15)*%
X22650000Y-1290000D03*
%TO.N,unconnected-(J1-Pin_16-Pad16)*%
X22650000Y1250000D03*
%TO.N,unconnected-(J1-Pin_17-Pad17)*%
X25190000Y-1290000D03*
%TO.N,unconnected-(J1-Pin_18-Pad18)*%
X25190000Y1250000D03*
%TO.N,unconnected-(J1-Pin_19-Pad19)*%
X27730000Y-1290000D03*
%TO.N,unconnected-(J1-Pin_20-Pad20)*%
X27730000Y1250000D03*
%TO.N,unconnected-(J1-Pin_21-Pad21)*%
X30270000Y-1290000D03*
%TO.N,unconnected-(J1-Pin_22-Pad22)*%
X30270000Y1250000D03*
%TO.N,unconnected-(J1-Pin_23-Pad23)*%
X32810000Y-1290000D03*
%TO.N,unconnected-(J1-Pin_24-Pad24)*%
X32810000Y1250000D03*
%TO.N,unconnected-(J1-Pin_25-Pad25)*%
X35350000Y-1290000D03*
%TO.N,unconnected-(J1-Pin_26-Pad26)*%
X35350000Y1250000D03*
%TO.N,Net-(J1-Pin_27)*%
X37890000Y-1290000D03*
%TO.N,unconnected-(J1-Pin_28-Pad28)*%
X37890000Y1250000D03*
%TO.N,Net-(J1-Pin_29)*%
X40430000Y-1290000D03*
%TO.N,unconnected-(J1-Pin_30-Pad30)*%
X40430000Y1250000D03*
%TO.N,Net-(J1-Pin_31)*%
X42970000Y-1290000D03*
%TO.N,unconnected-(J1-Pin_32-Pad32)*%
X42970000Y1250000D03*
%TO.N,Net-(J1-Pin_33)*%
X45510000Y-1290000D03*
%TO.N,unconnected-(J1-Pin_34-Pad34)*%
X45510000Y1250000D03*
%TO.N,Net-(J1-Pin_35)*%
X48050000Y-1290000D03*
%TO.N,unconnected-(J1-Pin_36-Pad36)*%
X48050000Y1250000D03*
%TO.N,Net-(J1-Pin_37)*%
X50590000Y-1290000D03*
%TO.N,unconnected-(J1-Pin_38-Pad38)*%
X50590000Y1250000D03*
%TO.N,GND*%
X53130000Y-1290000D03*
%TO.N,unconnected-(J1-Pin_40-Pad40)*%
X53130000Y1250000D03*
%TD*%
D10*
%TO.N,/servo_control/servo15*%
%TO.C,J19*%
X50000000Y-56000000D03*
D11*
%TO.N,6V_servo*%
X50000000Y-58540000D03*
%TO.N,GND*%
X50000000Y-61080000D03*
%TD*%
D10*
%TO.N,/servo_control/servo10*%
%TO.C,J14*%
X4000000Y-56000000D03*
D11*
%TO.N,6V_servo*%
X4000000Y-58540000D03*
%TO.N,GND*%
X4000000Y-61080000D03*
%TD*%
D14*
%TO.N,5V_pi*%
X51000000Y-17500000D03*
%TO.N,GND*%
X36091501Y-9091501D03*
X22750000Y-26750000D03*
X27000000Y-26750000D03*
X47875000Y-18625000D03*
%TO.N,7.4V_batt*%
X15500000Y-40000000D03*
%TO.N,GND*%
X34500000Y-28250000D03*
%TO.N,Net-(U5B--)*%
X23250000Y-52000000D03*
X37500000Y-44750000D03*
%TO.N,Net-(U5B-+)*%
X46000000Y-52750000D03*
X41750000Y-49750000D03*
%TO.N,GND*%
X33750000Y-49750000D03*
X42587500Y-51750000D03*
X10250000Y-17250000D03*
X10386050Y-25113950D03*
%TO.N,5V_pi*%
X18750000Y-30750000D03*
%TO.N,/servo_control/SCL_5V*%
X44500000Y-19000000D03*
%TO.N,/servo_control/SDA_5V*%
X45500000Y-18500000D03*
X42500000Y-28500000D03*
%TO.N,/servo_control/SCL_5V*%
X42750000Y-25500000D03*
%TO.N,SDA_3V3*%
X46250000Y-29000000D03*
%TO.N,SCL_3V3*%
X46250000Y-26000000D03*
%TO.N,CLK_3V3*%
X46250000Y-22950000D03*
X38500000Y-21500000D03*
%TO.N,SDA_3V3*%
X38000000Y-27750000D03*
%TO.N,SCL_3V3*%
X38000000Y-26250000D03*
%TO.N,Net-(U5B--)*%
X47000000Y-48500000D03*
X44000000Y-44000000D03*
X45500000Y-49000000D03*
%TO.N,Net-(U5A-+)*%
X46500000Y-46500000D03*
X37000000Y-50000000D03*
%TO.N,Net-(U5A--)*%
X41500000Y-54500000D03*
X35750000Y-50500000D03*
%TO.N,Net-(U4-OUT)*%
X36000000Y-56000000D03*
X23000000Y-43000000D03*
%TO.N,/servo_control/servo0*%
X42295001Y-6000000D03*
%TO.N,GND*%
X16500000Y-42750000D03*
%TO.N,5V_pi*%
X25750000Y-31000000D03*
%TO.N,7.4V_batt*%
X15000000Y-30000000D03*
X7500000Y-38500000D03*
X10750000Y-38500000D03*
X3250000Y-29500000D03*
X13250000Y-38500000D03*
%TO.N,GND*%
X34000000Y-41750000D03*
%TO.N,6V_servo*%
X-3075000Y-33000000D03*
X4500000Y-50750000D03*
X-3075000Y-29500000D03*
X-3075000Y-17750000D03*
X-3075000Y-24750000D03*
%TO.N,3V3_pi*%
X18918750Y-9331250D03*
%TO.N,BattLow*%
X40412500Y-51500000D03*
%TO.N,/servo_control/servo9*%
X26500000Y-42500000D03*
%TO.N,/servo_control/servo12*%
X29272012Y-44009064D03*
%TO.N,/servo_control/servo15*%
X32335894Y-42859403D03*
%TO.N,/servo_control/servo10*%
X27332053Y-43054702D03*
%TO.N,/servo_control/servo13*%
X30500000Y-44000000D03*
%TO.N,/servo_control/servo16*%
X33167947Y-42304702D03*
%TO.N,/servo_control/servo11*%
X28347339Y-43628296D03*
%TO.N,/servo_control/servo14*%
X31503843Y-43414105D03*
%TO.N,/servo_control/servo17*%
X35250000Y-35250000D03*
%TO.N,/servo_control/pwm3*%
X35259117Y-34240883D03*
%TO.N,/servo_control/pwm4*%
X35262119Y-33225650D03*
%TO.N,Net-(JP1-B)*%
X45552876Y-10747999D03*
%TO.N,Net-(JP2-B)*%
X44553589Y-10785810D03*
%TO.N,Net-(JP3-B)*%
X43535583Y-10785583D03*
%TO.N,Net-(JP4-B)*%
X42536605Y-10740335D03*
%TO.N,/servo_control/A5_1*%
X40536681Y-10749289D03*
%TO.N,/servo_control/A5_2*%
X29250003Y-37500000D03*
%TO.N,Net-(JP7-B)*%
X24226962Y-37504179D03*
%TO.N,Net-(JP8-B)*%
X25226847Y-37488874D03*
%TO.N,Net-(JP9-B)*%
X26240883Y-37490883D03*
%TO.N,Net-(JP10-B)*%
X27250000Y-37500000D03*
%TO.N,Net-(JP11-B)*%
X28250000Y-37500000D03*
%TO.N,Net-(U2-FB)*%
X12500000Y-13500000D03*
X18500000Y-40000000D03*
%TO.N,Net-(U1-PGATE)*%
X15750000Y-20750000D03*
X16750000Y-31000000D03*
%TO.N,Net-(JP5-B)*%
X41536678Y-10752621D03*
%TO.N,/servo_control/pwm1*%
X37510779Y-17029032D03*
%TO.N,/servo_control/servo8*%
X36680702Y-16471384D03*
%TO.N,/servo_control/servo3*%
X37852204Y-4214535D03*
%TO.N,/servo_control/servo4*%
X36750000Y-4892400D03*
%TO.N,/servo_control/servo5*%
X36035902Y-5612400D03*
%TO.N,/servo_control/servo6*%
X35365883Y-6365883D03*
%TO.N,/servo_control/servo2*%
X41000000Y-4000000D03*
%TO.N,/servo_control/servo7*%
X35375000Y-7375000D03*
%TO.N,/servo_control/servo1*%
X41645002Y-5000000D03*
%TO.N,/servo_control/pwm2*%
X38410077Y-17466374D03*
%TO.N,3V3_pi*%
X25750000Y-20500000D03*
X33750000Y-25250000D03*
X42332800Y-23750000D03*
X28000000Y-29000000D03*
X25250000Y-25500000D03*
X51250000Y-23000000D03*
%TO.N,Net-(U2-SW)*%
X12000000Y-45250000D03*
X-1000000Y-14000000D03*
%TD*%
D15*
%TO.N,Net-(J1-Pin_37)*%
X54500000Y-30875000D02*
X55700000Y-32075000D01*
X55700000Y-32075000D02*
X57537057Y-32075000D01*
X57537057Y-32075000D02*
X59750000Y-29862057D01*
X59750000Y-29862057D02*
X59750000Y-10450000D01*
X59750000Y-10450000D02*
X50590000Y-1290000D01*
%TO.N,Net-(J1-Pin_35)*%
X54500000Y-28335000D02*
X55840000Y-26995000D01*
X59250000Y-25282057D02*
X59250000Y-12490000D01*
X55840000Y-26995000D02*
X57537057Y-26995000D01*
X57537057Y-26995000D02*
X59250000Y-25282057D01*
X59250000Y-12490000D02*
X48050000Y-1290000D01*
%TO.N,Net-(J1-Pin_33)*%
X54500000Y-25795000D02*
X55840000Y-24455000D01*
X55840000Y-24455000D02*
X57537057Y-24455000D01*
X57537057Y-24455000D02*
X58750000Y-23242057D01*
X58750000Y-23242057D02*
X58750000Y-14530000D01*
X58750000Y-14530000D02*
X45510000Y-1290000D01*
%TO.N,Net-(J1-Pin_31)*%
X54500000Y-23255000D02*
X55700000Y-22055000D01*
X55700000Y-22055000D02*
X55700000Y-20222107D01*
X56547107Y-19375000D02*
X58240000Y-19375000D01*
X55700000Y-20222107D02*
X56547107Y-19375000D01*
X58240000Y-19375000D02*
X58240000Y-16560000D01*
X58240000Y-16560000D02*
X42970000Y-1290000D01*
%TO.N,Net-(J1-Pin_29)*%
X54500000Y-20715000D02*
X55700000Y-19515000D01*
X55700000Y-19515000D02*
X55700000Y-16560000D01*
X55700000Y-16560000D02*
X40430000Y-1290000D01*
%TO.N,Net-(J1-Pin_27)*%
X37890000Y-1290000D02*
X37890000Y-2344999D01*
X37890000Y-2344999D02*
X41545001Y-6000000D01*
X41545001Y-6000000D02*
X41545001Y-6310661D01*
X41545001Y-6310661D02*
X44734340Y-9500000D01*
X45825000Y-9500000D02*
X54500000Y-18175000D01*
X44734340Y-9500000D02*
X45825000Y-9500000D01*
D16*
%TO.N,SDA_3V3*%
X38000000Y-27750000D02*
X45000000Y-27750000D01*
X45000000Y-27750000D02*
X46250000Y-29000000D01*
%TO.N,GND*%
X22750000Y-26750000D02*
X22500000Y-26750000D01*
X27000000Y-26750000D02*
X22750000Y-26750000D01*
D17*
%TO.N,Net-(U5B--)*%
X23250000Y-52000000D02*
X30250000Y-52000000D01*
X30250000Y-52000000D02*
X37500000Y-44750000D01*
D16*
%TO.N,BattLow*%
X40412500Y-51500000D02*
X40500000Y-51412500D01*
X40500000Y-51412500D02*
X40500000Y-37445297D01*
X40500000Y-37445297D02*
X20110000Y-17055297D01*
X20110000Y-17055297D02*
X20110000Y-1290000D01*
D15*
%TO.N,Net-(U5B-+)*%
X43000000Y-49750000D02*
X46000000Y-52750000D01*
X41750000Y-49750000D02*
X43000000Y-49750000D01*
D16*
%TO.N,SCL_3V3*%
X46000000Y-26250000D02*
X46250000Y-26000000D01*
X38000000Y-26250000D02*
X46000000Y-26250000D01*
%TO.N,CLK_3V3*%
X46250000Y-22950000D02*
X46200000Y-23000000D01*
X46200000Y-23000000D02*
X40000000Y-23000000D01*
X40000000Y-23000000D02*
X38500000Y-21500000D01*
%TO.N,Net-(U5B--)*%
X46000000Y-48500000D02*
X47000000Y-48500000D01*
X45500000Y-49000000D02*
X46000000Y-48500000D01*
D17*
X45500000Y-45500000D02*
X44000000Y-44000000D01*
X45500000Y-49000000D02*
X45500000Y-45500000D01*
D16*
%TO.N,/servo_control/pwm2*%
X38410077Y-17466374D02*
X38572204Y-17304247D01*
X38572204Y-17304247D02*
X38572204Y-3822204D01*
X38572204Y-3822204D02*
X36720000Y-1970000D01*
X36720000Y-1970000D02*
X36720000Y9470000D01*
X36720000Y9470000D02*
X39500000Y12250000D01*
D18*
X39065000Y11815000D02*
X39500000Y12250000D01*
D15*
%TO.N,5V_pi*%
X16765000Y12275000D02*
X17965000Y13475000D01*
X17965000Y13475000D02*
X40815000Y13475000D01*
X40815000Y13475000D02*
X42040000Y12250000D01*
X4870000Y1250000D02*
X11500000Y7880000D01*
X11500000Y13475000D02*
X15565000Y13475000D01*
X11500000Y7880000D02*
X11500000Y13475000D01*
X15565000Y13475000D02*
X16765000Y12275000D01*
X16765000Y-61225000D02*
X15565000Y-62425000D01*
X-1325000Y-62425000D02*
X-3825000Y-59925000D01*
X15565000Y-62425000D02*
X-1325000Y-62425000D01*
X-3825000Y-59925000D02*
X-3825000Y-7445000D01*
X-3825000Y-7445000D02*
X4870000Y1250000D01*
D18*
%TO.N,/servo_control/pwm1*%
X37510779Y-17029032D02*
X37343427Y-17196384D01*
X37343427Y-17196384D02*
X36380397Y-17196384D01*
X36380397Y-17196384D02*
X21475000Y-2290987D01*
X21475000Y-2290987D02*
X21475000Y5025000D01*
X21475000Y5025000D02*
X14225000Y12275000D01*
D17*
%TO.N,5V_pi*%
X16765000Y-61225000D02*
X18015000Y-62475000D01*
X40515000Y-62475000D02*
X41765000Y-61225000D01*
X18015000Y-62475000D02*
X40515000Y-62475000D01*
D16*
%TO.N,/servo_control/pwm3*%
X14225000Y-53756766D02*
X14225000Y-61225000D01*
X33740883Y-34240883D02*
X14225000Y-53756766D01*
X35259117Y-34240883D02*
X33740883Y-34240883D01*
%TO.N,/servo_control/pwm4*%
X35262119Y-33225650D02*
X39225000Y-37188531D01*
X39225000Y-37188531D02*
X39225000Y-61225000D01*
%TO.N,/servo_control/servo8*%
X36680702Y-16471384D02*
X36843054Y-16309032D01*
%TD*%
M02*
