%TF.GenerationSoftware,KiCad,Pcbnew,8.0.6-8.0.6-0~ubuntu24.04.1*%
%TF.CreationDate,2024-11-11T20:35:34-05:00*%
%TF.ProjectId,Hexapod_bot,48657861-706f-4645-9f62-6f742e6b6963,rev?*%
%TF.SameCoordinates,Original*%
%TF.FileFunction,Paste,Bot*%
%TF.FilePolarity,Positive*%
%FSLAX46Y46*%
G04 Gerber Fmt 4.6, Leading zero omitted, Abs format (unit mm)*
G04 Created by KiCad (PCBNEW 8.0.6-8.0.6-0~ubuntu24.04.1) date 2024-11-11 20:35:34*
%MOMM*%
%LPD*%
G01*
G04 APERTURE LIST*
G04 Aperture macros list*
%AMRoundRect*
0 Rectangle with rounded corners*
0 $1 Rounding radius*
0 $2 $3 $4 $5 $6 $7 $8 $9 X,Y pos of 4 corners*
0 Add a 4 corners polygon primitive as box body*
4,1,4,$2,$3,$4,$5,$6,$7,$8,$9,$2,$3,0*
0 Add four circle primitives for the rounded corners*
1,1,$1+$1,$2,$3*
1,1,$1+$1,$4,$5*
1,1,$1+$1,$6,$7*
1,1,$1+$1,$8,$9*
0 Add four rect primitives between the rounded corners*
20,1,$1+$1,$2,$3,$4,$5,0*
20,1,$1+$1,$4,$5,$6,$7,0*
20,1,$1+$1,$6,$7,$8,$9,0*
20,1,$1+$1,$8,$9,$2,$3,0*%
G04 Aperture macros list end*
%ADD10RoundRect,0.237500X0.237500X-0.250000X0.237500X0.250000X-0.237500X0.250000X-0.237500X-0.250000X0*%
%ADD11RoundRect,0.237500X-0.237500X0.250000X-0.237500X-0.250000X0.237500X-0.250000X0.237500X0.250000X0*%
%ADD12RoundRect,0.237500X0.250000X0.237500X-0.250000X0.237500X-0.250000X-0.237500X0.250000X-0.237500X0*%
G04 APERTURE END LIST*
D10*
%TO.C,R34*%
X49750000Y-9000000D03*
X49750000Y-7175000D03*
%TD*%
%TO.C,R31*%
X52500000Y-9000000D03*
X52500000Y-7175000D03*
%TD*%
%TO.C,R30*%
X47000000Y-9000000D03*
X47000000Y-7175000D03*
%TD*%
D11*
%TO.C,R38*%
X36000000Y-40912500D03*
X36000000Y-39087500D03*
%TD*%
%TO.C,R40*%
X24000000Y-40912500D03*
X24000000Y-39087500D03*
%TD*%
%TO.C,R39*%
X30000000Y-40912500D03*
X30000000Y-39087500D03*
%TD*%
D12*
%TO.C,R9*%
X49087500Y-24500000D03*
X50912500Y-24500000D03*
%TD*%
D10*
%TO.C,R32*%
X38500000Y-9075007D03*
X38500000Y-7250007D03*
%TD*%
D12*
%TO.C,R4*%
X51150000Y-32750000D03*
X49325000Y-32750000D03*
%TD*%
%TO.C,R8*%
X51075000Y-30000000D03*
X49250000Y-30000000D03*
%TD*%
D11*
%TO.C,R37*%
X21000000Y-39087500D03*
X21000000Y-40912500D03*
%TD*%
D10*
%TO.C,R29*%
X41500000Y-7175000D03*
X41500000Y-9000000D03*
%TD*%
D12*
%TO.C,R7*%
X51175000Y-35750000D03*
X49350000Y-35750000D03*
%TD*%
D10*
%TO.C,R33*%
X44250000Y-7175000D03*
X44250000Y-9000000D03*
%TD*%
D11*
%TO.C,R36*%
X27000000Y-39087500D03*
X27000000Y-40912500D03*
%TD*%
D12*
%TO.C,R5*%
X51075000Y-27250000D03*
X49250000Y-27250000D03*
%TD*%
%TO.C,R6*%
X49250000Y-21500000D03*
X51075000Y-21500000D03*
%TD*%
D11*
%TO.C,R35*%
X33000000Y-40912500D03*
X33000000Y-39087500D03*
%TD*%
D10*
%TO.C,JP2*%
X47600000Y-15575000D03*
X47600000Y-13750000D03*
%TD*%
%TO.C,JP3*%
X44600000Y-15662500D03*
X44600000Y-13837500D03*
%TD*%
D11*
%TO.C,JP9*%
X24650000Y-32250000D03*
X24650000Y-34075000D03*
%TD*%
%TO.C,JP11*%
X30730000Y-32225000D03*
X30730000Y-34050000D03*
%TD*%
D10*
%TO.C,JP4*%
X41600000Y-15675000D03*
X41600000Y-13850000D03*
%TD*%
D11*
%TO.C,JP12*%
X33630000Y-32237500D03*
X33630000Y-34062500D03*
%TD*%
D10*
%TO.C,JP1*%
X50500000Y-15412500D03*
X50500000Y-13587500D03*
%TD*%
D11*
%TO.C,JP7*%
X18750000Y-32250000D03*
X18750000Y-34075000D03*
%TD*%
%TO.C,JP10*%
X27830000Y-32250000D03*
X27830000Y-34075000D03*
%TD*%
%TO.C,JP8*%
X21650000Y-32250000D03*
X21650000Y-34075000D03*
%TD*%
D10*
%TO.C,JP6*%
X35600000Y-15662500D03*
X35600000Y-13837500D03*
%TD*%
%TO.C,JP5*%
X38600000Y-15675000D03*
X38600000Y-13850000D03*
%TD*%
M02*
