M48
; DRILL file {KiCad 8.0.6-8.0.6-0~ubuntu24.04.1} date 2024-11-11T20:35:30-0500
; FORMAT={-:-/ absolute / inch / decimal}
; #@! TF.CreationDate,2024-11-11T20:35:30-05:00
; #@! TF.GenerationSoftware,Kicad,Pcbnew,8.0.6-8.0.6-0~ubuntu24.04.1
; #@! TF.FileFunction,Plated,1,4,PTH
FMAT,2
INCH
; #@! TA.AperFunction,Plated,PTH,ViaDrill
T1C0.0157
; #@! TA.AperFunction,Plated,PTH,ComponentDrill
T2C0.0394
; #@! TA.AperFunction,Plated,PTH,ComponentDrill
T3C0.0512
; #@! TA.AperFunction,Plated,PTH,ComponentDrill
T4C0.0984
%
G90
G05
T1
X-0.1211Y-0.6988
X-0.1211Y-0.9744
X-0.1211Y-1.1614
X-0.1211Y-1.2992
X-0.0394Y-0.5512
X0.128Y-1.1614
X0.1772Y-1.998
X0.2953Y-1.5157
X0.4035Y-0.6791
X0.4089Y-0.9887
X0.4232Y-1.5157
X0.4724Y-1.7815
X0.4921Y-0.5315
X0.5217Y-1.5157
X0.5906Y-1.1811
X0.6102Y-1.5748
X0.6201Y-0.8169
X0.6496Y-1.6831
X0.6594Y-1.2205
X0.7283Y-1.5748
X0.7382Y-1.2106
X0.7448Y-0.3674
X0.8957Y-1.0531
X0.9055Y-1.6929
X0.9154Y-2.0472
X0.9538Y-1.4765
X0.9932Y-1.4759
X0.9941Y-1.0039
X1.0138Y-0.8071
X1.0138Y-1.2205
X1.0331Y-1.476
X1.0433Y-1.6732
X1.063Y-1.0531
X1.0728Y-1.4764
X1.0761Y-1.6951
X1.1024Y-1.1417
X1.1122Y-1.4764
X1.116Y-1.7176
X1.1516Y-1.4764
X1.1524Y-1.7326
X1.2008Y-1.7323
X1.2403Y-1.7092
X1.2731Y-1.6874
X1.3058Y-1.6655
X1.3287Y-0.9941
X1.3287Y-1.9587
X1.3386Y-1.6437
X1.3583Y-1.1122
X1.3878Y-1.3878
X1.3882Y-1.3481
X1.3883Y-1.3081
X1.3924Y-0.2506
X1.3927Y-0.2904
X1.4075Y-1.9882
X1.4173Y-2.2047
X1.4187Y-0.221
X1.4209Y-0.3579
X1.4441Y-0.6485
X1.4469Y-0.1926
X1.4567Y-1.9685
X1.4764Y-1.7618
X1.4768Y-0.6704
X1.4902Y-0.1659
X1.4961Y-1.0335
X1.4961Y-1.0925
X1.5122Y-0.6877
X1.5157Y-0.8465
X1.591Y-2.0276
X1.5959Y-0.4232
X1.6142Y-0.1575
X1.6339Y-2.1457
X1.6353Y-0.4233
X1.6396Y-0.1969
X1.6437Y-1.9587
X1.6652Y-0.2362
X1.6666Y-0.935
X1.6732Y-1.122
X1.6747Y-0.4228
X1.6767Y-2.0374
X1.6831Y-1.0039
X1.714Y-0.4246
X1.7323Y-1.7323
X1.752Y-0.748
X1.7541Y-0.4246
X1.7913Y-0.7283
X1.7913Y-1.9291
X1.7934Y-0.4231
X1.811Y-2.0768
X1.8209Y-0.9035
X1.8209Y-1.0236
X1.8209Y-1.1417
X1.8307Y-1.8307
X1.8504Y-1.9094
X1.8848Y-0.7333
X2.0079Y-0.689
X2.0177Y-0.9055
T2
X0.0Y0.4756
X0.0Y0.3756
X0.0Y0.2756
X0.0Y-2.2047
X0.0Y-2.3047
X0.0Y-2.4047
X0.1575Y0.4756
X0.1575Y0.3756
X0.1575Y0.2756
X0.1575Y-2.2047
X0.1575Y-2.3047
X0.1575Y-2.4047
X0.1917Y0.0492
X0.1917Y-0.0508
X0.2917Y0.0492
X0.2917Y-0.0508
X0.315Y0.4756
X0.315Y0.3756
X0.315Y0.2756
X0.315Y-2.2047
X0.315Y-2.3047
X0.315Y-2.4047
X0.3917Y0.0492
X0.3917Y-0.0508
X0.4917Y0.0492
X0.4917Y-0.0508
X0.56Y0.4833
X0.56Y-2.4104
X0.5917Y0.0492
X0.5917Y-0.0508
X0.66Y0.4833
X0.66Y-2.4104
X0.6917Y0.0492
X0.6917Y-0.0508
X0.76Y0.4833
X0.76Y-2.4104
X0.7917Y0.0492
X0.7917Y-0.0508
X0.8917Y0.0492
X0.8917Y-0.0508
X0.9843Y0.4756
X0.9843Y0.3756
X0.9843Y0.2756
X0.9843Y-2.2047
X0.9843Y-2.3047
X0.9843Y-2.4047
X0.9917Y0.0492
X0.9917Y-0.0508
X1.0917Y0.0492
X1.0917Y-0.0508
X1.1417Y0.4756
X1.1417Y0.3756
X1.1417Y0.2756
X1.1417Y-2.2047
X1.1417Y-2.3047
X1.1417Y-2.4047
X1.1917Y0.0492
X1.1917Y-0.0508
X1.2917Y0.0492
X1.2917Y-0.0508
X1.2992Y0.4756
X1.2992Y0.3756
X1.2992Y0.2756
X1.2992Y-2.2047
X1.2992Y-2.3047
X1.2992Y-2.4047
X1.3917Y0.0492
X1.3917Y-0.0508
X1.4917Y0.0492
X1.4917Y-0.0508
X1.5443Y-2.4104
X1.5551Y0.4823
X1.5917Y0.0492
X1.5917Y-0.0508
X1.6443Y-2.4104
X1.6551Y0.4823
X1.6917Y0.0492
X1.6917Y-0.0508
X1.7443Y-2.4104
X1.7551Y0.4823
X1.7917Y0.0492
X1.7917Y-0.0508
X1.8917Y0.0492
X1.8917Y-0.0508
X1.9685Y0.4756
X1.9685Y0.3756
X1.9685Y0.2756
X1.9685Y-2.2047
X1.9685Y-2.3047
X1.9685Y-2.4047
X1.9917Y0.0492
X1.9917Y-0.0508
X2.0917Y0.0492
X2.0917Y-0.0508
X2.126Y0.4756
X2.126Y0.3756
X2.126Y0.2756
X2.126Y-2.2047
X2.126Y-2.3047
X2.126Y-2.4047
X2.1457Y-0.7156
X2.1457Y-0.8156
X2.1457Y-0.9156
X2.1457Y-1.0156
X2.1457Y-1.1156
X2.1457Y-1.2156
X2.2457Y-0.7156
X2.2457Y-0.8156
X2.2457Y-0.9156
X2.2457Y-1.0156
X2.2457Y-1.1156
X2.2457Y-1.2156
X2.2835Y0.4756
X2.2835Y0.3756
X2.2835Y0.2756
X2.2835Y-2.2047
X2.2835Y-2.3047
X2.2835Y-2.4047
T3
X-0.0394Y-1.5551
X-0.0394Y-1.6929
T4
X0.0Y0.0
X0.0Y-1.9291
X2.2835Y0.0
X2.2835Y-1.9291
M30
